<?xml version="1.0" encoding="UTF-8"?>
<!DOCTYPE svg PUBLIC "-//W3C//DTD SVG 1.1//EN" "http://www.w3.org/Graphics/SVG/1.1/DTD/svg11.dtd">
<svg xmlns="http://www.w3.org/2000/svg" version="1.1" width="1024px" height="1024px" style="shape-rendering:geometricPrecision; text-rendering:geometricPrecision; image-rendering:optimizeQuality; fill-rule:evenodd; clip-rule:evenodd" xmlns:xlink="http://www.w3.org/1999/xlink">
<g><path style="opacity:1" fill="#ededed" d="M -0.5,-0.5 C 20.8333,-0.5 42.1667,-0.5 63.5,-0.5C 63.5,18.5 63.5,37.5 63.5,56.5C 42.1667,56.5 20.8333,56.5 -0.5,56.5C -0.5,37.5 -0.5,18.5 -0.5,-0.5 Z"/></g>
<g><path style="opacity:1" fill="#f9f9f9" d="M 63.5,-0.5 C 84.8333,-0.5 106.167,-0.5 127.5,-0.5C 127.5,18.5 127.5,37.5 127.5,56.5C 106.167,56.5 84.8333,56.5 63.5,56.5C 63.5,37.5 63.5,18.5 63.5,-0.5 Z"/></g>
<g><path style="opacity:1" fill="#ededed" d="M 127.5,-0.5 C 148.833,-0.5 170.167,-0.5 191.5,-0.5C 191.5,18.5 191.5,37.5 191.5,56.5C 170.167,56.5 148.833,56.5 127.5,56.5C 127.5,37.5 127.5,18.5 127.5,-0.5 Z"/></g>
<g><path style="opacity:1" fill="#f9f9f9" d="M 191.5,-0.5 C 212.833,-0.5 234.167,-0.5 255.5,-0.5C 255.5,18.5 255.5,37.5 255.5,56.5C 234.026,56.0654 212.692,56.0654 191.5,56.5C 191.5,37.5 191.5,18.5 191.5,-0.5 Z"/></g>
<g><path style="opacity:1" fill="#ededed" d="M 255.5,-0.5 C 276.833,-0.5 298.167,-0.5 319.5,-0.5C 319.5,18.5 319.5,37.5 319.5,56.5C 298.167,56.5 276.833,56.5 255.5,56.5C 255.5,37.5 255.5,18.5 255.5,-0.5 Z"/></g>
<g><path style="opacity:1" fill="#f9f9f9" d="M 319.5,-0.5 C 340.833,-0.5 362.167,-0.5 383.5,-0.5C 383.5,18.5 383.5,37.5 383.5,56.5C 362.167,56.5 340.833,56.5 319.5,56.5C 319.5,37.5 319.5,18.5 319.5,-0.5 Z"/></g>
<g><path style="opacity:1" fill="#ededed" d="M 383.5,-0.5 C 404.833,-0.5 426.167,-0.5 447.5,-0.5C 447.5,18.5 447.5,37.5 447.5,56.5C 426.167,56.5 404.833,56.5 383.5,56.5C 383.5,37.5 383.5,18.5 383.5,-0.5 Z"/></g>
<g><path style="opacity:1" fill="#f9faf9" d="M 447.5,-0.5 C 468.833,-0.5 490.167,-0.5 511.5,-0.5C 511.5,18.5 511.5,37.5 511.5,56.5C 490.167,56.5 468.833,56.5 447.5,56.5C 447.5,37.5 447.5,18.5 447.5,-0.5 Z"/></g>
<g><path style="opacity:1" fill="#ededed" d="M 511.5,-0.5 C 532.833,-0.5 554.167,-0.5 575.5,-0.5C 575.5,18.5 575.5,37.5 575.5,56.5C 554.167,56.5 532.833,56.5 511.5,56.5C 511.5,37.5 511.5,18.5 511.5,-0.5 Z"/></g>
<g><path style="opacity:1" fill="#f9f9f9" d="M 575.5,-0.5 C 596.833,-0.5 618.167,-0.5 639.5,-0.5C 639.5,18.5 639.5,37.5 639.5,56.5C 618.027,55.9396 596.694,55.9396 575.5,56.5C 575.5,37.5 575.5,18.5 575.5,-0.5 Z"/></g>
<g><path style="opacity:1" fill="#ededed" d="M 639.5,-0.5 C 660.833,-0.5 682.167,-0.5 703.5,-0.5C 703.5,18.5 703.5,37.5 703.5,56.5C 682.167,56.5 660.833,56.5 639.5,56.5C 639.5,37.5 639.5,18.5 639.5,-0.5 Z"/></g>
<g><path style="opacity:1" fill="#f9f9f9" d="M 703.5,-0.5 C 724.833,-0.5 746.167,-0.5 767.5,-0.5C 767.5,18.5 767.5,37.5 767.5,56.5C 746.167,56.5 724.833,56.5 703.5,56.5C 703.5,37.5 703.5,18.5 703.5,-0.5 Z"/></g>
<g><path style="opacity:1" fill="#ededed" d="M 767.5,-0.5 C 788.833,-0.5 810.167,-0.5 831.5,-0.5C 831.5,18.5 831.5,37.5 831.5,56.5C 810.167,56.5 788.833,56.5 767.5,56.5C 767.5,37.5 767.5,18.5 767.5,-0.5 Z"/></g>
<g><path style="opacity:1" fill="#fafaf9" d="M 831.5,-0.5 C 852.833,-0.5 874.167,-0.5 895.5,-0.5C 895.5,18.5 895.5,37.5 895.5,56.5C 874.167,56.5 852.833,56.5 831.5,56.5C 831.5,37.5 831.5,18.5 831.5,-0.5 Z"/></g>
<g><path style="opacity:1" fill="#ededed" d="M 895.5,-0.5 C 916.833,-0.5 938.167,-0.5 959.5,-0.5C 959.5,18.5 959.5,37.5 959.5,56.5C 938.167,56.5 916.833,56.5 895.5,56.5C 895.5,37.5 895.5,18.5 895.5,-0.5 Z"/></g>
<g><path style="opacity:1" fill="#f9f9f9" d="M 959.5,-0.5 C 980.833,-0.5 1002.17,-0.5 1023.5,-0.5C 1023.5,18.5 1023.5,37.5 1023.5,56.5C 1001.9,55.6194 980.569,55.6194 959.5,56.5C 959.5,37.5 959.5,18.5 959.5,-0.5 Z"/></g>
<g><path style="opacity:1" fill="#f9faf9" d="M -0.5,56.5 C 20.8333,56.5 42.1667,56.5 63.5,56.5C 63.5,75.5 63.5,94.5 63.5,113.5C 42.1667,113.5 20.8333,113.5 -0.5,113.5C -0.5,94.5 -0.5,75.5 -0.5,56.5 Z"/></g>
<g><path style="opacity:1" fill="#ededed" d="M 63.5,56.5 C 84.8333,56.5 106.167,56.5 127.5,56.5C 127.5,75.5 127.5,94.5 127.5,113.5C 106.167,113.5 84.8333,113.5 63.5,113.5C 63.5,94.5 63.5,75.5 63.5,56.5 Z"/></g>
<g><path style="opacity:1" fill="#f9faf9" d="M 127.5,56.5 C 148.833,56.5 170.167,56.5 191.5,56.5C 191.5,75.5 191.5,94.5 191.5,113.5C 170.167,113.5 148.833,113.5 127.5,113.5C 127.5,94.5 127.5,75.5 127.5,56.5 Z"/></g>
<g><path style="opacity:1" fill="#ededed" d="M 255.5,56.5 C 255.5,75.5 255.5,94.5 255.5,113.5C 234.167,113.5 212.833,113.5 191.5,113.5C 191.5,94.5 191.5,75.5 191.5,56.5C 212.692,56.0654 234.026,56.0654 255.5,56.5 Z"/></g>
<g><path style="opacity:1" fill="#ededed" d="M 319.5,56.5 C 340.833,56.5 362.167,56.5 383.5,56.5C 383.5,75.5 383.5,94.5 383.5,113.5C 362.167,113.5 340.833,113.5 319.5,113.5C 319.5,94.5 319.5,75.5 319.5,56.5 Z"/></g>
<g><path style="opacity:1" fill="#f9faf9" d="M 383.5,56.5 C 404.833,56.5 426.167,56.5 447.5,56.5C 447.5,75.5 447.5,94.5 447.5,113.5C 426.167,113.5 404.833,113.5 383.5,113.5C 383.5,94.5 383.5,75.5 383.5,56.5 Z"/></g>
<g><path style="opacity:1" fill="#ededed" d="M 447.5,56.5 C 468.833,56.5 490.167,56.5 511.5,56.5C 511.5,75.5 511.5,94.5 511.5,113.5C 490.167,113.5 468.833,113.5 447.5,113.5C 447.5,94.5 447.5,75.5 447.5,56.5 Z"/></g>
<g><path style="opacity:1" fill="#f9faf9" d="M 511.5,56.5 C 532.833,56.5 554.167,56.5 575.5,56.5C 575.5,75.5 575.5,94.5 575.5,113.5C 554.167,113.5 532.833,113.5 511.5,113.5C 511.5,94.5 511.5,75.5 511.5,56.5 Z"/></g>
<g><path style="opacity:1" fill="#ededed" d="M 639.5,56.5 C 639.5,75.5 639.5,94.5 639.5,113.5C 618.167,113.5 596.833,113.5 575.5,113.5C 575.5,94.5 575.5,75.5 575.5,56.5C 596.694,55.9396 618.027,55.9396 639.5,56.5 Z"/></g>
<g><path style="opacity:1" fill="#f9faf9" d="M 639.5,56.5 C 660.833,56.5 682.167,56.5 703.5,56.5C 703.5,75.5 703.5,94.5 703.5,113.5C 682.167,113.5 660.833,113.5 639.5,113.5C 639.5,94.5 639.5,75.5 639.5,56.5 Z"/></g>
<g><path style="opacity:1" fill="#ededed" d="M 703.5,56.5 C 724.833,56.5 746.167,56.5 767.5,56.5C 767.5,75.5 767.5,94.5 767.5,113.5C 746.167,113.5 724.833,113.5 703.5,113.5C 703.5,94.5 703.5,75.5 703.5,56.5 Z"/></g>
<g><path style="opacity:1" fill="#f9faf9" d="M 767.5,56.5 C 788.833,56.5 810.167,56.5 831.5,56.5C 831.5,75.5 831.5,94.5 831.5,113.5C 810.167,113.5 788.833,113.5 767.5,113.5C 767.5,94.5 767.5,75.5 767.5,56.5 Z"/></g>
<g><path style="opacity:1" fill="#ededed" d="M 831.5,56.5 C 852.833,56.5 874.167,56.5 895.5,56.5C 895.5,75.5 895.5,94.5 895.5,113.5C 874.167,113.5 852.833,113.5 831.5,113.5C 831.5,94.5 831.5,75.5 831.5,56.5 Z"/></g>
<g><path style="opacity:1" fill="#ededed" d="M 1023.5,56.5 C 1023.5,75.5 1023.5,94.5 1023.5,113.5C 1002.17,113.5 980.833,113.5 959.5,113.5C 959.5,94.5 959.5,75.5 959.5,56.5C 980.569,55.6194 1001.9,55.6194 1023.5,56.5 Z"/></g>
<g><path style="opacity:1" fill="#ededed" d="M -0.5,113.5 C 20.8333,113.5 42.1667,113.5 63.5,113.5C 63.5,132.5 63.5,151.5 63.5,170.5C 42.1667,170.5 20.8333,170.5 -0.5,170.5C -0.5,151.5 -0.5,132.5 -0.5,113.5 Z"/></g>
<g><path style="opacity:1" fill="#f9faf9" d="M 63.5,113.5 C 84.8333,113.5 106.167,113.5 127.5,113.5C 127.5,132.5 127.5,151.5 127.5,170.5C 106.167,170.5 84.8333,170.5 63.5,170.5C 63.5,151.5 63.5,132.5 63.5,113.5 Z"/></g>
<g><path style="opacity:1" fill="#ededed" d="M 127.5,113.5 C 148.833,113.5 170.167,113.5 191.5,113.5C 191.5,132.5 191.5,151.5 191.5,170.5C 170.167,170.5 148.833,170.5 127.5,170.5C 127.5,151.5 127.5,132.5 127.5,113.5 Z"/></g>
<g><path style="opacity:1" fill="#f9f9f9" d="M 255.5,56.5 C 276.833,56.5 298.167,56.5 319.5,56.5C 319.5,75.5 319.5,94.5 319.5,113.5C 298.497,113.333 277.497,113.5 256.5,114C 255.507,132.757 255.174,151.59 255.5,170.5C 234.167,170.5 212.833,170.5 191.5,170.5C 191.5,151.5 191.5,132.5 191.5,113.5C 212.833,113.5 234.167,113.5 255.5,113.5C 255.5,94.5 255.5,75.5 255.5,56.5 Z"/></g>
<g><path style="opacity:1" fill="#f9faf9" d="M 319.5,113.5 C 340.833,113.5 362.167,113.5 383.5,113.5C 383.5,132.5 383.5,151.5 383.5,170.5C 362.167,170.5 340.833,170.5 319.5,170.5C 319.5,151.5 319.5,132.5 319.5,113.5 Z"/></g>
<g><path style="opacity:1" fill="#ededed" d="M 383.5,113.5 C 404.833,113.5 426.167,113.5 447.5,113.5C 447.5,132.5 447.5,151.5 447.5,170.5C 426.167,170.5 404.833,170.5 383.5,170.5C 383.5,151.5 383.5,132.5 383.5,113.5 Z"/></g>
<g><path style="opacity:1" fill="#f9faf9" d="M 447.5,113.5 C 468.833,113.5 490.167,113.5 511.5,113.5C 511.5,132.5 511.5,151.5 511.5,170.5C 490.167,170.5 468.833,170.5 447.5,170.5C 447.5,151.5 447.5,132.5 447.5,113.5 Z"/></g>
<g><path style="opacity:1" fill="#ededed" d="M 511.5,113.5 C 532.833,113.5 554.167,113.5 575.5,113.5C 575.5,132.5 575.5,151.5 575.5,170.5C 554.167,170.5 532.833,170.5 511.5,170.5C 511.5,151.5 511.5,132.5 511.5,113.5 Z"/></g>
<g><path style="opacity:1" fill="#f9faf9" d="M 575.5,113.5 C 596.833,113.5 618.167,113.5 639.5,113.5C 639.5,132.5 639.5,151.5 639.5,170.5C 618.167,170.5 596.833,170.5 575.5,170.5C 575.5,151.5 575.5,132.5 575.5,113.5 Z"/></g>
<g><path style="opacity:1" fill="#ededed" d="M 639.5,113.5 C 660.833,113.5 682.167,113.5 703.5,113.5C 703.5,132.5 703.5,151.5 703.5,170.5C 682.167,170.5 660.833,170.5 639.5,170.5C 639.5,151.5 639.5,132.5 639.5,113.5 Z"/></g>
<g><path style="opacity:1" fill="#ededed" d="M 767.5,113.5 C 788.833,113.5 810.167,113.5 831.5,113.5C 831.5,132.5 831.5,151.5 831.5,170.5C 810.167,170.5 788.833,170.5 767.5,170.5C 767.5,151.5 767.5,132.5 767.5,113.5 Z"/></g>
<g><path style="opacity:1" fill="#f9f9f9" d="M 895.5,56.5 C 916.833,56.5 938.167,56.5 959.5,56.5C 959.5,75.5 959.5,94.5 959.5,113.5C 938.497,113.333 917.497,113.5 896.5,114C 895.507,132.757 895.174,151.59 895.5,170.5C 874.167,170.5 852.833,170.5 831.5,170.5C 831.5,151.5 831.5,132.5 831.5,113.5C 852.833,113.5 874.167,113.5 895.5,113.5C 895.5,94.5 895.5,75.5 895.5,56.5 Z"/></g>
<g><path style="opacity:1" fill="#ededed" d="M 959.5,113.5 C 959.5,132.5 959.5,151.5 959.5,170.5C 938.167,170.5 916.833,170.5 895.5,170.5C 895.174,151.59 895.507,132.757 896.5,114C 917.497,113.5 938.497,113.333 959.5,113.5 Z"/></g>
<g><path style="opacity:1" fill="#f9faf9" d="M 959.5,113.5 C 980.833,113.5 1002.17,113.5 1023.5,113.5C 1023.5,132.5 1023.5,151.5 1023.5,170.5C 1002.17,170.5 980.833,170.5 959.5,170.5C 959.5,151.5 959.5,132.5 959.5,113.5 Z"/></g>
<g><path style="opacity:1" fill="#ededed" d="M 319.5,113.5 C 319.5,132.5 319.5,151.5 319.5,170.5C 298.167,170.5 276.833,170.5 255.5,170.5C 255.174,151.59 255.507,132.757 256.5,114C 277.497,113.5 298.497,113.333 319.5,113.5 Z"/></g>
<g><path style="opacity:1" fill="#f9faf9" d="M -0.5,170.5 C 20.8333,170.5 42.1667,170.5 63.5,170.5C 63.5,189.5 63.5,208.5 63.5,227.5C 42.1667,227.5 20.8333,227.5 -0.5,227.5C -0.5,208.5 -0.5,189.5 -0.5,170.5 Z"/></g>
<g><path style="opacity:1" fill="#f9faf9" d="M 127.5,170.5 C 148.833,170.5 170.167,170.5 191.5,170.5C 191.5,189.5 191.5,208.5 191.5,227.5C 170.167,227.5 148.833,227.5 127.5,227.5C 127.5,208.5 127.5,189.5 127.5,170.5 Z"/></g>
<g><path style="opacity:1" fill="#ededed" d="M 191.5,170.5 C 212.833,170.5 234.167,170.5 255.5,170.5C 255.5,189.5 255.5,208.5 255.5,227.5C 234.167,227.5 212.833,227.5 191.5,227.5C 191.5,208.5 191.5,189.5 191.5,170.5 Z"/></g>
<g><path style="opacity:1" fill="#f9faf9" d="M 255.5,170.5 C 276.833,170.5 298.167,170.5 319.5,170.5C 319.5,189.5 319.5,208.5 319.5,227.5C 298.167,227.5 276.833,227.5 255.5,227.5C 255.5,208.5 255.5,189.5 255.5,170.5 Z"/></g>
<g><path style="opacity:1" fill="#f9faf9" d="M 383.5,170.5 C 404.833,170.5 426.167,170.5 447.5,170.5C 447.5,189.5 447.5,208.5 447.5,227.5C 426.167,227.5 404.833,227.5 383.5,227.5C 383.5,208.5 383.5,189.5 383.5,170.5 Z"/></g>
<g><path style="opacity:1" fill="#f9f9f9" d="M 703.5,113.5 C 724.833,113.5 746.167,113.5 767.5,113.5C 767.5,132.5 767.5,151.5 767.5,170.5C 746.497,170.333 725.497,170.5 704.5,171C 703.507,189.757 703.174,208.59 703.5,227.5C 682.167,227.5 660.833,227.5 639.5,227.5C 639.5,208.5 639.5,189.5 639.5,170.5C 660.833,170.5 682.167,170.5 703.5,170.5C 703.5,151.5 703.5,132.5 703.5,113.5 Z"/></g>
<g><path style="opacity:1" fill="#f9faf9" d="M 767.5,170.5 C 788.833,170.5 810.167,170.5 831.5,170.5C 831.5,189.5 831.5,208.5 831.5,227.5C 810.167,227.5 788.833,227.5 767.5,227.5C 767.5,208.5 767.5,189.5 767.5,170.5 Z"/></g>
<g><path style="opacity:1" fill="#ededed" d="M 831.5,170.5 C 852.833,170.5 874.167,170.5 895.5,170.5C 895.5,189.5 895.5,208.5 895.5,227.5C 873.958,227.528 852.625,227.528 831.5,227.5C 831.5,208.5 831.5,189.5 831.5,170.5 Z"/></g>
<g><path style="opacity:1" fill="#f9faf9" d="M 895.5,170.5 C 916.833,170.5 938.167,170.5 959.5,170.5C 959.5,189.5 959.5,208.5 959.5,227.5C 938.167,227.5 916.833,227.5 895.5,227.5C 895.5,208.5 895.5,189.5 895.5,170.5 Z"/></g>
<g><path style="opacity:1" fill="#ededed" d="M 959.5,170.5 C 980.833,170.5 1002.17,170.5 1023.5,170.5C 1023.5,189.5 1023.5,208.5 1023.5,227.5C 1002.17,227.5 980.833,227.5 959.5,227.5C 959.5,208.5 959.5,189.5 959.5,170.5 Z"/></g>
<g><path style="opacity:1" fill="#ededed" d="M 63.5,170.5 C 84.8333,170.5 106.167,170.5 127.5,170.5C 127.5,189.5 127.5,208.5 127.5,227.5C 106.167,227.5 84.8333,227.5 63.5,227.5C 63.5,208.5 63.5,189.5 63.5,170.5 Z"/></g>
<g><path style="opacity:1" fill="#ededed" d="M 319.5,170.5 C 340.833,170.5 362.167,170.5 383.5,170.5C 383.5,189.5 383.5,208.5 383.5,227.5C 362.167,227.5 340.833,227.5 319.5,227.5C 319.5,208.5 319.5,189.5 319.5,170.5 Z"/></g>
<g><path style="opacity:1" fill="#ededed" d="M 767.5,170.5 C 767.5,189.5 767.5,208.5 767.5,227.5C 746.167,227.5 724.833,227.5 703.5,227.5C 703.174,208.59 703.507,189.757 704.5,171C 725.497,170.5 746.497,170.333 767.5,170.5 Z"/></g>
<g><path style="opacity:1" fill="#ededed" d="M -0.5,227.5 C 20.8333,227.5 42.1667,227.5 63.5,227.5C 63.5,246.833 63.5,266.167 63.5,285.5C 42.1667,285.5 20.8333,285.5 -0.5,285.5C -0.5,266.167 -0.5,246.833 -0.5,227.5 Z"/></g>
<g><path style="opacity:1" fill="#f9faf9" d="M 63.5,227.5 C 84.8333,227.5 106.167,227.5 127.5,227.5C 127.5,246.833 127.5,266.167 127.5,285.5C 106.167,285.5 84.8333,285.5 63.5,285.5C 63.5,266.167 63.5,246.833 63.5,227.5 Z"/></g>
<g><path style="opacity:1" fill="#fafaf9" d="M 191.5,227.5 C 212.833,227.5 234.167,227.5 255.5,227.5C 255.5,246.833 255.5,266.167 255.5,285.5C 234.167,285.5 212.833,285.5 191.5,285.5C 191.5,266.167 191.5,246.833 191.5,227.5 Z"/></g>
<g><path style="opacity:1" fill="#fafaf9" d="M 319.5,227.5 C 340.833,227.5 362.167,227.5 383.5,227.5C 383.5,246.833 383.5,266.167 383.5,285.5C 362.167,285.5 340.833,285.5 319.5,285.5C 319.5,266.167 319.5,246.833 319.5,227.5 Z"/></g>
<g><path style="opacity:1" fill="#f9f9f9" d="M 511.5,170.5 C 532.833,170.5 554.167,170.5 575.5,170.5C 575.5,189.5 575.5,208.5 575.5,227.5C 554.497,227.333 533.497,227.5 512.5,228C 511.507,247.09 511.174,266.257 511.5,285.5C 490.167,285.5 468.833,285.5 447.5,285.5C 447.167,266.488 447.5,247.488 448.5,228.5C 469.454,227.512 490.454,227.178 511.5,227.5C 511.5,208.5 511.5,189.5 511.5,170.5 Z"/></g>
<g><path style="opacity:1" fill="#f9f9f9" d="M 575.5,227.5 C 596.503,227.333 617.503,227.5 638.5,228C 639.493,247.09 639.826,266.257 639.5,285.5C 618.167,285.5 596.833,285.5 575.5,285.5C 575.5,266.167 575.5,246.833 575.5,227.5 Z"/></g>
<g><path style="opacity:1" fill="#f9faf9" d="M 703.5,227.5 C 724.833,227.5 746.167,227.5 767.5,227.5C 767.5,246.833 767.5,266.167 767.5,285.5C 746.167,285.5 724.833,285.5 703.5,285.5C 703.5,266.167 703.5,246.833 703.5,227.5 Z"/></g>
<g><path style="opacity:1" fill="#f9f9f9" d="M 831.5,227.5 C 852.625,227.528 873.958,227.528 895.5,227.5C 895.5,246.833 895.5,266.167 895.5,285.5C 874.167,285.5 852.833,285.5 831.5,285.5C 831.5,266.167 831.5,246.833 831.5,227.5 Z"/></g>
<g><path style="opacity:1" fill="#f9f9f9" d="M 959.5,227.5 C 980.833,227.5 1002.17,227.5 1023.5,227.5C 1023.5,246.833 1023.5,266.167 1023.5,285.5C 1002.17,285.5 980.833,285.5 959.5,285.5C 959.5,266.167 959.5,246.833 959.5,227.5 Z"/></g>
<g><path style="opacity:1" fill="#ededed" d="M 127.5,227.5 C 148.833,227.5 170.167,227.5 191.5,227.5C 191.5,246.833 191.5,266.167 191.5,285.5C 170.167,285.5 148.833,285.5 127.5,285.5C 127.5,266.167 127.5,246.833 127.5,227.5 Z"/></g>
<g><path style="opacity:1" fill="#ededed" d="M 255.5,227.5 C 276.833,227.5 298.167,227.5 319.5,227.5C 319.5,246.833 319.5,266.167 319.5,285.5C 298.167,285.5 276.833,285.5 255.5,285.5C 255.5,266.167 255.5,246.833 255.5,227.5 Z"/></g>
<g><path style="opacity:1" fill="#ededed" d="M 447.5,170.5 C 468.833,170.5 490.167,170.5 511.5,170.5C 511.5,189.5 511.5,208.5 511.5,227.5C 490.454,227.178 469.454,227.512 448.5,228.5C 447.5,247.488 447.167,266.488 447.5,285.5C 426.167,285.5 404.833,285.5 383.5,285.5C 383.5,266.167 383.5,246.833 383.5,227.5C 404.833,227.5 426.167,227.5 447.5,227.5C 447.5,208.5 447.5,189.5 447.5,170.5 Z"/></g>
<g><path style="opacity:1" fill="#ededed" d="M 575.5,227.5 C 575.5,246.833 575.5,266.167 575.5,285.5C 554.167,285.5 532.833,285.5 511.5,285.5C 511.174,266.257 511.507,247.09 512.5,228C 533.497,227.5 554.497,227.333 575.5,227.5 Z"/></g>
<g><path style="opacity:1" fill="#ededed" d="M 575.5,170.5 C 596.833,170.5 618.167,170.5 639.5,170.5C 639.5,189.5 639.5,208.5 639.5,227.5C 660.833,227.5 682.167,227.5 703.5,227.5C 703.5,246.833 703.5,266.167 703.5,285.5C 682.167,285.5 660.833,285.5 639.5,285.5C 639.826,266.257 639.493,247.09 638.5,228C 617.503,227.5 596.503,227.333 575.5,227.5C 575.5,208.5 575.5,189.5 575.5,170.5 Z"/></g>
<g><path style="opacity:1" fill="#ededed" d="M 767.5,227.5 C 788.833,227.5 810.167,227.5 831.5,227.5C 831.5,246.833 831.5,266.167 831.5,285.5C 810.167,285.5 788.833,285.5 767.5,285.5C 767.5,266.167 767.5,246.833 767.5,227.5 Z"/></g>
<g><path style="opacity:1" fill="#ededed" d="M 895.5,227.5 C 916.833,227.5 938.167,227.5 959.5,227.5C 959.5,246.833 959.5,266.167 959.5,285.5C 938.167,285.5 916.833,285.5 895.5,285.5C 895.5,266.167 895.5,246.833 895.5,227.5 Z"/></g>
<g><path style="opacity:1" fill="#f9faf9" d="M -0.5,285.5 C 20.8333,285.5 42.1667,285.5 63.5,285.5C 63.5,304.167 63.5,322.833 63.5,341.5C 42.1667,341.5 20.8333,341.5 -0.5,341.5C -0.5,322.833 -0.5,304.167 -0.5,285.5 Z"/></g>
<g><path style="opacity:1" fill="#ededed" d="M 63.5,285.5 C 84.8333,285.5 106.167,285.5 127.5,285.5C 127.5,304.167 127.5,322.833 127.5,341.5C 106.167,341.5 84.8333,341.5 63.5,341.5C 63.5,322.833 63.5,304.167 63.5,285.5 Z"/></g>
<g><path style="opacity:1" fill="#f9faf9" d="M 127.5,285.5 C 148.833,285.5 170.167,285.5 191.5,285.5C 191.5,304.167 191.5,322.833 191.5,341.5C 170.167,341.5 148.833,341.5 127.5,341.5C 127.5,322.833 127.5,304.167 127.5,285.5 Z"/></g>
<g><path style="opacity:1" fill="#ededed" d="M 191.5,285.5 C 212.833,285.5 234.167,285.5 255.5,285.5C 255.5,304.167 255.5,322.833 255.5,341.5C 234.167,341.5 212.833,341.5 191.5,341.5C 191.5,322.833 191.5,304.167 191.5,285.5 Z"/></g>
<g><path style="opacity:1" fill="#f9faf9" d="M 255.5,285.5 C 276.833,285.5 298.167,285.5 319.5,285.5C 319.5,304.167 319.5,322.833 319.5,341.5C 298.167,341.5 276.833,341.5 255.5,341.5C 255.5,322.833 255.5,304.167 255.5,285.5 Z"/></g>
<g><path style="opacity:1" fill="#ededed" d="M 319.5,285.5 C 340.833,285.5 362.167,285.5 383.5,285.5C 383.5,304.167 383.5,322.833 383.5,341.5C 362.626,342.115 341.292,342.115 319.5,341.5C 319.5,322.833 319.5,304.167 319.5,285.5 Z"/></g>
<g><path style="opacity:1" fill="#ededed" d="M 447.5,285.5 C 468.833,285.5 490.167,285.5 511.5,285.5C 510.852,298.876 511.519,311.876 513.5,324.5C 501.884,328.808 492.218,335.808 484.5,345.5C 484.5,344.5 484.5,343.5 484.5,342.5C 472.204,341.56 459.871,341.227 447.5,341.5C 447.5,322.833 447.5,304.167 447.5,285.5 Z"/></g>
<g><path style="opacity:1" fill="#f9f9f9" d="M 511.5,285.5 C 532.833,285.5 554.167,285.5 575.5,285.5C 575.667,298.837 575.5,312.171 575,325.5C 572.885,323.94 570.719,323.607 568.5,324.5C 566.883,323.962 565.216,323.629 563.5,323.5C 561.524,321.989 559.191,321.156 556.5,321C 541.846,318.395 527.513,319.561 513.5,324.5C 511.519,311.876 510.852,298.876 511.5,285.5 Z"/></g>
<g><path style="opacity:1" fill="#ededed" d="M 575.5,285.5 C 596.833,285.5 618.167,285.5 639.5,285.5C 639.5,304.167 639.5,322.833 639.5,341.5C 629.494,341.334 619.494,341.5 609.5,342C 607.942,342.21 606.609,342.71 605.5,343.5C 598.569,341.517 591.569,339.683 584.5,338C 580.102,332.314 574.769,327.814 568.5,324.5C 570.719,323.607 572.885,323.94 575,325.5C 575.5,312.171 575.667,298.837 575.5,285.5 Z"/></g>
<g><path style="opacity:1" fill="#f9f9f9" d="M 639.5,285.5 C 660.833,285.5 682.167,285.5 703.5,285.5C 703.5,304.167 703.5,322.833 703.5,341.5C 682.47,341.112 661.47,341.612 640.5,343C 640.173,347.214 639.173,351.048 637.5,354.5C 626.748,350.806 616.081,347.139 605.5,343.5C 606.609,342.71 607.942,342.21 609.5,342C 619.494,341.5 629.494,341.334 639.5,341.5C 639.5,322.833 639.5,304.167 639.5,285.5 Z"/></g>
<g><path style="opacity:1" fill="#ededed" d="M 703.5,285.5 C 724.833,285.5 746.167,285.5 767.5,285.5C 767.5,304.167 767.5,322.833 767.5,341.5C 746.083,341.785 724.749,341.785 703.5,341.5C 703.5,322.833 703.5,304.167 703.5,285.5 Z"/></g>
<g><path style="opacity:1" fill="#f9faf9" d="M 767.5,285.5 C 788.833,285.5 810.167,285.5 831.5,285.5C 831.5,304.167 831.5,322.833 831.5,341.5C 810.167,341.5 788.833,341.5 767.5,341.5C 767.5,322.833 767.5,304.167 767.5,285.5 Z"/></g>
<g><path style="opacity:1" fill="#ededed" d="M 831.5,285.5 C 852.833,285.5 874.167,285.5 895.5,285.5C 895.5,304.167 895.5,322.833 895.5,341.5C 874.167,341.5 852.833,341.5 831.5,341.5C 831.5,322.833 831.5,304.167 831.5,285.5 Z"/></g>
<g><path style="opacity:1" fill="#ededed" d="M 959.5,285.5 C 980.833,285.5 1002.17,285.5 1023.5,285.5C 1023.5,304.167 1023.5,322.833 1023.5,341.5C 1002.5,341.667 981.497,341.5 960.5,341C 959.507,322.576 959.174,304.076 959.5,285.5 Z"/></g>
<g><path style="opacity:1" fill="#3a5e88" d="M 563.5,323.5 C 559.707,325.414 556.707,328.247 554.5,332C 554.833,332.333 555.167,332.667 555.5,333C 553.18,334.488 553.013,336.321 555,338.5C 555.333,338.167 555.667,337.833 556,337.5C 556.749,338.635 556.583,339.635 555.5,340.5C 553.929,339.691 552.262,339.357 550.5,339.5C 550.719,338.325 550.386,337.325 549.5,336.5C 549.015,338.777 549.681,340.944 551.5,343C 551,343.5 550.5,344 550,344.5C 548.35,344.068 546.85,342.735 545.5,340.5C 544.5,341.833 543.5,343.167 542.5,344.5C 540.862,343.295 540.529,341.962 541.5,340.5C 539.631,339.376 537.631,338.543 535.5,338C 534.458,336.082 533.292,334.249 532,332.5C 531.691,330.487 532.358,330.154 534,331.5C 534.749,330.365 534.583,329.365 533.5,328.5C 532.575,329.641 531.741,329.641 531,328.5C 529.667,332.5 528.333,332.5 527,328.5C 526.333,331.167 525.667,331.167 525,328.5C 524.5,330.333 523.333,331.5 521.5,332C 523.181,333.945 523.848,335.945 523.5,338C 521.581,339.934 520.081,339.767 519,337.5C 518.577,338.956 517.744,339.456 516.5,339C 516.833,338.667 517.167,338.333 517.5,338C 515.843,337.769 514.509,336.935 513.5,335.5C 514.29,334.206 515.29,333.039 516.5,332C 501.495,334.759 489.328,342.259 480,354.5C 480.913,351.341 482.413,348.341 484.5,345.5C 492.218,335.808 501.884,328.808 513.5,324.5C 527.513,319.561 541.846,318.395 556.5,321C 559.191,321.156 561.524,321.989 563.5,323.5 Z"/></g>
<g><path style="opacity:1" fill="#f9f9f9" d="M 383.5,285.5 C 404.833,285.5 426.167,285.5 447.5,285.5C 447.5,304.167 447.5,322.833 447.5,341.5C 459.871,341.227 472.204,341.56 484.5,342.5C 484.5,343.5 484.5,344.5 484.5,345.5C 482.413,348.341 480.913,351.341 480,354.5C 489.328,342.259 501.495,334.759 516.5,332C 515.29,333.039 514.29,334.206 513.5,335.5C 502.516,347.29 498.016,361.29 500,377.5C 500.927,384.444 502.761,391.111 505.5,397.5C 486.671,398.332 467.671,398.832 448.5,399C 447.507,417.424 447.174,435.924 447.5,454.5C 451.078,454.549 454.411,455.215 457.5,456.5C 454.526,459.138 451.526,461.805 448.5,464.5C 445.265,461.99 444.931,459.157 447.5,456C 426.169,455.5 404.836,455.333 383.5,455.5C 383.5,436.5 383.5,417.5 383.5,398.5C 362.167,398.5 340.833,398.5 319.5,398.5C 319.5,379.5 319.5,360.5 319.5,341.5C 341.292,342.115 362.626,342.115 383.5,341.5C 383.5,322.833 383.5,304.167 383.5,285.5 Z"/></g>
<g><path style="opacity:1" fill="#f9f9f9" d="M 63.5,341.5 C 84.8333,341.5 106.167,341.5 127.5,341.5C 127.5,360.5 127.5,379.5 127.5,398.5C 106.167,398.5 84.8333,398.5 63.5,398.5C 63.5,379.5 63.5,360.5 63.5,341.5 Z"/></g>
<g><path style="opacity:1" fill="#f9f9fa" d="M 191.5,341.5 C 212.833,341.5 234.167,341.5 255.5,341.5C 255.5,360.5 255.5,379.5 255.5,398.5C 234.167,398.5 212.833,398.5 191.5,398.5C 191.5,379.5 191.5,360.5 191.5,341.5 Z"/></g>
<g><path style="opacity:1" fill="#f9f9f9" d="M 703.5,341.5 C 724.749,341.785 746.083,341.785 767.5,341.5C 767.5,360.5 767.5,379.5 767.5,398.5C 746.167,398.5 724.833,398.5 703.5,398.5C 703.5,379.5 703.5,360.5 703.5,341.5 Z"/></g>
<g><path style="opacity:1" fill="#f9faf9" d="M 831.5,341.5 C 852.833,341.5 874.167,341.5 895.5,341.5C 895.5,360.5 895.5,379.5 895.5,398.5C 874.167,398.5 852.833,398.5 831.5,398.5C 831.5,379.5 831.5,360.5 831.5,341.5 Z"/></g>
<g><path style="opacity:1" fill="#f9f9f9" d="M 895.5,285.5 C 916.833,285.5 938.167,285.5 959.5,285.5C 959.174,304.076 959.507,322.576 960.5,341C 981.497,341.5 1002.5,341.667 1023.5,341.5C 1023.5,360.5 1023.5,379.5 1023.5,398.5C 1002.17,398.5 980.833,398.5 959.5,398.5C 959.5,379.5 959.5,360.5 959.5,341.5C 938.167,341.5 916.833,341.5 895.5,341.5C 895.5,322.833 895.5,304.167 895.5,285.5 Z"/></g>
<g><path style="opacity:1" fill="#ededed" d="M -0.5,341.5 C 20.8333,341.5 42.1667,341.5 63.5,341.5C 63.5,360.5 63.5,379.5 63.5,398.5C 42.1667,398.5 20.8333,398.5 -0.5,398.5C -0.5,379.5 -0.5,360.5 -0.5,341.5 Z"/></g>
<g><path style="opacity:1" fill="#ededed" d="M 127.5,341.5 C 148.833,341.5 170.167,341.5 191.5,341.5C 191.5,360.5 191.5,379.5 191.5,398.5C 170.167,398.5 148.833,398.5 127.5,398.5C 127.5,379.5 127.5,360.5 127.5,341.5 Z"/></g>
<g><path style="opacity:1" fill="#ededed" d="M 255.5,341.5 C 276.833,341.5 298.167,341.5 319.5,341.5C 319.5,360.5 319.5,379.5 319.5,398.5C 298.167,398.5 276.833,398.5 255.5,398.5C 255.5,379.5 255.5,360.5 255.5,341.5 Z"/></g>
<g><path style="opacity:1" fill="#ededed" d="M 383.5,398.5 C 383.5,379.833 383.5,361.167 383.5,342.5C 404.833,342.5 426.167,342.5 447.5,342.5C 447.5,361.167 447.5,379.833 447.5,398.5C 426.167,398.5 404.833,398.5 383.5,398.5 Z"/></g>
<g><path style="opacity:1" fill="#ededed" d="M 703.5,341.5 C 703.5,360.5 703.5,379.5 703.5,398.5C 682.167,398.5 660.833,398.5 639.5,398.5C 639.687,387.403 639.687,376.403 639.5,365.5C 643.466,366.162 647.466,366.495 651.5,366.5C 654.64,367.641 657.973,367.808 661.5,367C 660.956,366.283 660.289,365.783 659.5,365.5C 652.101,361.801 644.768,358.134 637.5,354.5C 639.173,351.048 640.173,347.214 640.5,343C 661.47,341.612 682.47,341.112 703.5,341.5 Z"/></g>
<g><path style="opacity:1" fill="#ededed" d="M 767.5,341.5 C 788.833,341.5 810.167,341.5 831.5,341.5C 831.5,360.5 831.5,379.5 831.5,398.5C 810.167,398.5 788.833,398.5 767.5,398.5C 767.5,379.5 767.5,360.5 767.5,341.5 Z"/></g>
<g><path style="opacity:1" fill="#ededed" d="M 895.5,341.5 C 916.833,341.5 938.167,341.5 959.5,341.5C 959.5,360.5 959.5,379.5 959.5,398.5C 938.167,398.5 916.833,398.5 895.5,398.5C 895.5,379.5 895.5,360.5 895.5,341.5 Z"/></g>
<g><path style="opacity:1" fill="#ededed" d="M 578.5,358.5 C 576.801,358.34 575.134,358.506 573.5,359C 574.812,365.428 575.479,372.094 575.5,379C 575.333,385.5 575.167,392 575,398.5C 573.559,397.74 572.059,397.074 570.5,396.5C 569.893,396.624 569.56,396.957 569.5,397.5C 562.489,392.109 554.489,389.609 545.5,390C 535.195,385.89 531.361,378.39 534,367.5C 536.256,362.243 540.09,358.743 545.5,357C 556.695,356.401 567.695,356.901 578.5,358.5 Z"/></g>
<g><path style="opacity:1" fill="#f9f9f9" d="M 578.5,358.5 C 598.871,360.588 619.204,362.921 639.5,365.5C 639.687,376.403 639.687,387.403 639.5,398.5C 618.831,398.333 598.164,398.5 577.5,399C 576.922,400.417 575.922,401.25 574.5,401.5C 572.833,400.167 571.167,398.833 569.5,397.5C 569.56,396.957 569.893,396.624 570.5,396.5C 572.059,397.074 573.559,397.74 575,398.5C 575.167,392 575.333,385.5 575.5,379C 575.479,372.094 574.812,365.428 573.5,359C 575.134,358.506 576.801,358.34 578.5,358.5 Z"/></g>
<g><path style="opacity:1" fill="#7792ac" d="M 659.5,365.5 C 660.289,365.783 660.956,366.283 661.5,367C 657.973,367.808 654.64,367.641 651.5,366.5C 654.385,366.806 657.052,366.473 659.5,365.5 Z"/></g>
<g><path style="opacity:1" fill="#375b87" d="M 563.5,323.5 C 565.216,323.629 566.883,323.962 568.5,324.5C 574.769,327.814 580.102,332.314 584.5,338C 591.569,339.683 598.569,341.517 605.5,343.5C 616.081,347.139 626.748,350.806 637.5,354.5C 644.768,358.134 652.101,361.801 659.5,365.5C 657.052,366.473 654.385,366.806 651.5,366.5C 647.466,366.495 643.466,366.162 639.5,365.5C 619.204,362.921 598.871,360.588 578.5,358.5C 567.695,356.901 556.695,356.401 545.5,357C 540.09,358.743 536.256,362.243 534,367.5C 531.361,378.39 535.195,385.89 545.5,390C 554.489,389.609 562.489,392.109 569.5,397.5C 571.167,398.833 572.833,400.167 574.5,401.5C 587.561,417.054 592.895,435.054 590.5,455.5C 587.318,470.375 582.318,484.709 575.5,498.5C 572.586,502.658 569.919,506.991 567.5,511.5C 552.63,532.04 535.63,550.707 516.5,567.5C 514.5,568.833 512.833,570.5 511.5,572.5C 499.252,586.999 491.252,603.666 487.5,622.5C 486.686,624.631 486.186,626.964 486,629.5C 483.775,648.515 485.941,666.848 492.5,684.5C 494.271,689.659 496.105,694.659 498,699.5C 492.01,693.469 486.51,687.135 481.5,680.5C 470.762,663.948 464.429,645.948 462.5,626.5C 462.334,618.826 462.5,611.159 463,603.5C 490.052,588.781 510.719,567.781 525,540.5C 528.258,532.47 530.091,524.137 530.5,515.5C 531.653,509.347 531.82,503.014 531,496.5C 529.893,495.288 529.393,495.621 529.5,497.5C 528.963,503.26 527.963,508.927 526.5,514.5C 525.359,512.771 523.693,511.771 521.5,511.5C 516.503,512.652 516.17,511.486 520.5,508C 518.077,507.604 515.744,506.27 513.5,504C 519.565,503.053 519.899,501.22 514.5,498.5C 515.641,497.575 515.641,496.741 514.5,496C 511.94,496.214 509.274,496.214 506.5,496C 507.833,496.667 507.833,497.333 506.5,498C 508.225,497.591 509.892,497.758 511.5,498.5C 510.229,498.126 509.062,498.792 508,500.5C 507.383,501.449 507.549,502.282 508.5,503C 507.464,504.617 506.297,504.784 505,503.5C 504.349,501.765 504.515,500.098 505.5,498.5C 503.509,494.611 502.676,494.611 503,498.5C 501.57,498.694 500.07,498.694 498.5,498.5C 499.806,497.088 500.64,495.421 501,493.5C 502,493.5 503,493.5 504,493.5C 505.377,492.036 505.377,491.036 504,490.5C 500.668,491.752 498.335,494.085 497,497.5C 496.465,495.729 495.631,495.396 494.5,496.5C 497.414,501.817 496.747,502.484 492.5,498.5C 491.719,499.729 491.219,501.062 491,502.5C 489.951,503.517 488.784,503.684 487.5,503C 488.167,502.667 488.833,502.333 489.5,502C 488,501.167 486.833,500 486,498.5C 485.667,499.167 485.333,499.833 485,500.5C 484.759,497.711 484.092,495.044 483,492.5C 481.719,492.381 480.552,492.881 479.5,494C 480.638,495.734 481.138,497.568 481,499.5C 479.242,498.531 478.742,497.364 479.5,496C 477.697,495.363 476.364,494.197 475.5,492.5C 474.549,493.326 473.549,493.492 472.5,493C 472.07,492.08 471.736,491.247 471.5,490.5C 469.667,491.052 468,491.885 466.5,493C 469.167,493.667 469.167,494.333 466.5,495C 467.624,495.249 468.624,495.749 469.5,496.5C 468.183,496.313 466.85,496.98 465.5,498.5C 465.874,497.229 465.208,496.062 463.5,495C 463.833,494.667 464.167,494.333 464.5,494C 463.271,492.471 461.771,491.304 460,490.5C 457.417,493.997 455.084,497.664 453,501.5C 452.426,499.508 451.259,498.008 449.5,497C 449.833,496.667 450.167,496.333 450.5,496C 449.167,495.333 447.833,494.667 446.5,494C 446.619,492.719 446.119,491.552 445,490.5C 444.293,492.081 443.46,493.581 442.5,495C 443.833,495.333 445.167,495.667 446.5,496C 447.451,496.718 447.617,497.551 447,498.5C 442.344,503.839 437.177,508.339 431.5,512C 431.048,516.1 429.548,516.267 427,512.5C 426.667,513.167 426.333,513.833 426,514.5C 424.474,509.373 423.474,509.373 423,514.5C 422.072,516.335 420.906,516.668 419.5,515.5C 419.467,516.989 418.967,518.322 418,519.5C 413.808,518.737 413.474,520.071 417,523.5C 419.415,522.986 420.749,521.986 421,520.5C 423.977,521.149 424.311,522.483 422,524.5C 421,524.167 420,523.833 419,523.5C 418.383,524.449 418.549,525.282 419.5,526C 418.892,526.87 418.059,527.37 417,527.5C 415.907,525.702 414.407,524.868 412.5,525C 413.833,525.667 413.833,526.333 412.5,527C 413.672,527.419 414.672,528.085 415.5,529C 413.3,531.234 411.467,533.734 410,536.5C 409.311,535.643 408.478,534.977 407.5,534.5C 407.898,538.007 406.231,540.507 402.5,542C 404.624,542.958 406.624,544.125 408.5,545.5C 408.833,545.333 409.167,545.167 409.5,545C 407.606,543.899 406.939,542.566 407.5,541C 408.5,540.5 409.5,540 410.5,539.5C 412.68,541.261 414.346,543.427 415.5,546C 414.437,547.188 413.103,547.688 411.5,547.5C 410.874,551.375 412.541,553.209 416.5,553C 415.022,555.039 413.022,555.872 410.5,555.5C 410.204,558.263 409.204,560.763 407.5,563C 414.828,566.767 415.162,570.934 408.5,575.5C 404.097,572.025 403.097,568.025 405.5,563.5C 404.5,563.5 403.5,563.5 402.5,563.5C 402.5,564.833 402.5,566.167 402.5,567.5C 401.448,567.351 400.448,567.517 399.5,568C 399.833,568.333 400.167,568.667 400.5,569C 399.003,571.207 397.003,571.874 394.5,571C 395.478,569.025 396.811,567.358 398.5,566C 398.37,564.941 397.87,564.108 397,563.5C 396.385,565.116 395.385,566.449 394,567.5C 393.28,565.745 392.113,564.911 390.5,565C 391.833,566.667 391.833,568.333 390.5,570C 391.851,571.617 393.518,572.784 395.5,573.5C 392.972,574.517 392.972,575.684 395.5,577C 392.563,577.361 389.73,576.861 387,575.5C 385.941,575.63 385.108,576.13 384.5,577C 387.352,579.153 387.852,581.653 386,584.5C 384.753,582.119 384.42,582.453 385,585.5C 386.406,586.668 387.572,586.335 388.5,584.5C 390.789,585.077 391.955,586.077 392,587.5C 392.873,587.265 393.707,586.931 394.5,586.5C 395.452,588.045 395.785,589.712 395.5,591.5C 400.243,590.859 400.577,589.359 396.5,587C 397.667,586.5 398.5,585.667 399,584.5C 399.333,582.5 399.667,580.5 400,578.5C 401.333,577.167 402.667,577.167 404,578.5C 404.617,577.551 404.451,576.718 403.5,576C 404,575.833 404.5,575.667 405,575.5C 407.464,576.929 409.631,578.762 411.5,581C 410.167,582 410.167,583 411.5,584C 412.944,584.781 414.277,584.614 415.5,583.5C 414.212,580.916 414.878,579.416 417.5,579C 420.039,581.042 422.039,583.542 423.5,586.5C 422.408,587.831 421.074,588.664 419.5,589C 421.891,589.691 421.891,590.691 419.5,592C 420.448,592.483 421.448,592.649 422.5,592.5C 422.657,593.873 422.49,595.207 422,596.5C 419.558,593.548 416.891,590.882 414,588.5C 412.681,590.487 410.848,591.654 408.5,592C 411.742,592.283 412.076,593.117 409.5,594.5C 411.401,595.935 411.734,597.602 410.5,599.5C 407.157,596.905 405.99,597.905 407,602.5C 407.853,604.125 408.853,604.458 410,603.5C 411.109,607.017 412.276,607.184 413.5,604C 413.089,602.856 412.756,601.689 412.5,600.5C 413.824,598.296 415.324,596.963 417,596.5C 417.865,598.225 418.531,599.892 419,601.5C 420.851,599.219 422.518,599.219 424,601.5C 424.617,600.551 424.451,599.718 423.5,599C 424.167,598.667 424.833,598.333 425.5,598C 424.289,596.887 424.289,595.72 425.5,594.5C 423.248,591.824 423.415,589.157 426,586.5C 426.402,587.872 426.902,589.205 427.5,590.5C 424.859,591.95 425.192,592.617 428.5,592.5C 430.995,591.697 432.995,590.197 434.5,588C 432.043,586.846 432.043,585.512 434.5,584C 433.449,582.615 432.116,581.615 430.5,581C 431.38,579.644 431.714,578.144 431.5,576.5C 432.552,576.649 433.552,576.483 434.5,576C 433.23,574.188 431.064,572.688 428,571.5C 427.691,572.766 427.191,573.933 426.5,575C 427.449,575.617 428.282,575.451 429,574.5C 431.176,577.666 430.343,579.832 426.5,581C 427.337,582.011 427.67,583.178 427.5,584.5C 428.5,584.5 429.5,584.5 430.5,584.5C 430.657,585.873 430.49,587.207 430,588.5C 427.957,587.421 426.624,585.754 426,583.5C 425.086,584.654 424.253,584.487 423.5,583C 424.833,582 424.833,581 423.5,580C 425.044,579.71 426.377,579.044 427.5,578C 425.255,577.755 422.922,577.755 420.5,578C 423.177,576.537 424.177,574.537 423.5,572C 426.376,569.619 429.376,567.452 432.5,565.5C 432.192,564.692 431.692,564.025 431,563.5C 429.57,563.694 428.07,563.694 426.5,563.5C 426.167,563.667 425.833,563.833 425.5,564C 428.079,565.612 428.079,567.112 425.5,568.5C 423.311,566.939 422.145,565.272 422,563.5C 421.408,565.307 419.908,566.973 417.5,568.5C 415.659,565.571 413.326,563.071 410.5,561C 411.035,558.891 412.035,558.391 413.5,559.5C 414.833,558.5 416.167,557.5 417.5,556.5C 418.386,557.325 418.719,558.325 418.5,559.5C 417.5,559.5 416.5,559.5 415.5,559.5C 415.222,561.346 415.889,562.68 417.5,563.5C 418.935,562.176 419.935,560.51 420.5,558.5C 422.719,559.243 424.053,560.243 424.5,561.5C 428.353,560.496 428.353,559.662 424.5,559C 423.167,558.333 423.167,557.667 424.5,557C 426.049,557.522 427.549,557.355 429,556.5C 430.261,556.759 431.261,557.426 432,558.5C 432.483,557.552 432.649,556.552 432.5,555.5C 430.801,555.66 429.134,555.494 427.5,555C 428.46,553.581 429.293,552.081 430,550.5C 431.073,551.28 432.24,551.113 433.5,550C 430.856,547.709 431.19,547.209 434.5,548.5C 434.19,550.201 434.69,551.868 436,553.5C 436.915,552.672 437.581,551.672 438,550.5C 438.914,551.654 439.747,551.487 440.5,550C 439.833,549.667 439.167,549.333 438.5,549C 439.623,547.956 440.956,547.29 442.5,547C 441.809,545.933 441.309,544.766 441,543.5C 440.151,546.521 438.651,547.021 436.5,545C 437.551,543.615 438.884,542.615 440.5,542C 439.809,540.933 439.309,539.766 439,538.5C 437.612,539.554 436.112,539.72 434.5,539C 435.646,538.355 436.646,537.522 437.5,536.5C 440.36,538.45 442.36,541.117 443.5,544.5C 444.799,543.91 445.632,542.91 446,541.5C 446.495,543.473 446.662,545.473 446.5,547.5C 443.5,547.167 442.167,548.5 442.5,551.5C 445.374,550.937 448.04,549.937 450.5,548.5C 450.657,549.873 450.49,551.207 450,552.5C 448.027,553.64 446.193,554.973 444.5,556.5C 443.914,556.291 443.414,555.957 443,555.5C 443.148,556.825 442.982,557.992 442.5,559C 440.524,559.188 438.524,559.021 436.5,558.5C 434.291,558.569 432.291,559.236 430.5,560.5C 432.5,562.5 434.5,564.5 436.5,566.5C 434.915,568.087 433.248,568.92 431.5,569C 431.381,570.281 431.881,571.448 433,572.5C 433.689,571.643 434.522,570.977 435.5,570.5C 436.696,570.846 436.696,571.346 435.5,572C 436.766,572.309 437.933,572.809 439,573.5C 439.309,572.234 439.809,571.067 440.5,570C 438.671,568.887 437.837,567.387 438,565.5C 439.402,567.973 440.902,567.973 442.5,565.5C 444.071,566.309 445.738,566.643 447.5,566.5C 447.5,565.5 447.5,564.5 447.5,563.5C 446.5,563.5 445.5,563.5 444.5,563.5C 444.238,562.022 444.571,560.689 445.5,559.5C 447.116,558.885 448.449,557.885 449.5,556.5C 450.9,558.782 450.234,560.282 447.5,561C 448.931,561.465 450.097,562.299 451,563.5C 451.333,561.5 451.667,559.5 452,557.5C 453.342,558.902 454.176,558.569 454.5,556.5C 453.751,554.964 452.751,553.631 451.5,552.5C 452.665,551.416 453.998,550.583 455.5,550C 454.66,548.334 455.16,548.167 457,549.5C 458.487,548.845 459.653,547.845 460.5,546.5C 458.5,546.5 456.5,546.5 454.5,546.5C 453.406,545.132 453.74,543.965 455.5,543C 454.286,538.789 452.119,537.956 449,540.5C 447.71,538.646 446.21,538.313 444.5,539.5C 443.373,537.731 443.873,536.397 446,535.5C 446.333,536.167 446.667,536.833 447,537.5C 448.333,537.5 449.667,537.5 451,537.5C 451.667,536.5 451.667,535.5 451,534.5C 449.443,535.205 448.277,534.539 447.5,532.5C 449.952,531.686 452.285,532.186 454.5,534C 451.972,534.669 451.972,535.502 454.5,536.5C 457.355,534.164 457.022,532.331 453.5,531C 454.253,529.513 455.086,529.346 456,530.5C 456.465,529.069 457.299,527.903 458.5,527C 457.549,526.282 457.383,525.449 458,524.5C 458.745,525.99 459.912,526.99 461.5,527.5C 463.16,526.213 464.826,524.88 466.5,523.5C 467.601,525.012 467.267,526.512 465.5,528C 466.907,529.452 468.407,529.285 470,527.5C 471.647,529.631 471.314,531.631 469,533.5C 466.827,530.723 466.327,530.89 467.5,534C 466.421,534.956 465.255,535.789 464,536.5C 463.333,537.5 463.333,538.5 464,539.5C 464.667,538.167 465.333,538.167 466,539.5C 466.833,538.5 467.667,537.5 468.5,536.5C 470.191,538.492 472.025,539.492 474,539.5C 474.374,538.584 474.874,537.75 475.5,537C 470.398,533.284 471.064,530.45 477.5,528.5C 478.799,530.307 478.632,531.973 477,533.5C 476.444,531.405 475.944,531.238 475.5,533C 476.032,535.02 477.365,535.853 479.5,535.5C 479.343,534.127 479.51,532.793 480,531.5C 481,531.167 482,530.833 483,530.5C 483.72,532.112 483.554,533.612 482.5,535C 484.631,536.647 486.631,536.314 488.5,534C 487.289,533.107 487.289,532.274 488.5,531.5C 489.795,532.098 491.128,532.598 492.5,533C 492.102,535.857 493.435,538.024 496.5,539.5C 497.386,538.675 497.719,537.675 497.5,536.5C 499.167,536.5 500.833,536.5 502.5,536.5C 502.312,538.103 502.812,539.437 504,540.5C 504.333,539.833 504.667,539.167 505,538.5C 505.9,540.398 507.066,542.064 508.5,543.5C 510.05,540.871 509.384,539.037 506.5,538C 508.731,536.853 511.065,535.853 513.5,535C 511.915,534.915 510.582,534.749 509.5,534.5C 510.5,533.5 511.5,532.5 512.5,531.5C 513.812,532.46 515.146,532.294 516.5,531C 515.216,529.703 515.383,528.536 517,527.5C 516.912,530.006 517.745,531.673 519.5,532.5C 512.417,547.473 502.75,560.639 490.5,572C 471.048,588.233 450.048,602.233 427.5,614C 423.332,617.002 419.665,620.502 416.5,624.5C 408.868,633.544 400.868,642.377 392.5,651C 389.433,653.188 386.433,655.355 383.5,657.5C 377.712,660.395 371.712,662.728 365.5,664.5C 365.281,652.772 365.947,641.106 367.5,629.5C 370.591,609.137 375.257,589.137 381.5,569.5C 382.736,567.351 383.736,565.018 384.5,562.5C 391.518,544.797 399.852,527.797 409.5,511.5C 420.644,494.35 433.644,478.683 448.5,464.5C 451.526,461.805 454.526,459.138 457.5,456.5C 466.057,450.387 475.39,445.553 485.5,442C 494.55,439.962 503.55,440.129 512.5,442.5C 518.677,445.66 524.343,449.66 529.5,454.5C 532.088,458.677 534.921,462.677 538,466.5C 543.587,464.411 547.753,460.745 550.5,455.5C 556.158,443.448 554.158,432.948 544.5,424C 538.079,420.728 531.412,418.061 524.5,416C 520.008,413.002 515.675,409.835 511.5,406.5C 509.745,403.32 507.745,400.32 505.5,397.5C 502.761,391.111 500.927,384.444 500,377.5C 498.016,361.29 502.516,347.29 513.5,335.5C 514.509,336.935 515.843,337.769 517.5,338C 517.167,338.333 516.833,338.667 516.5,339C 517.744,339.456 518.577,338.956 519,337.5C 520.081,339.767 521.581,339.934 523.5,338C 523.848,335.945 523.181,333.945 521.5,332C 523.333,331.5 524.5,330.333 525,328.5C 525.667,331.167 526.333,331.167 527,328.5C 528.333,332.5 529.667,332.5 531,328.5C 531.741,329.641 532.575,329.641 533.5,328.5C 534.583,329.365 534.749,330.365 534,331.5C 532.358,330.154 531.691,330.487 532,332.5C 533.292,334.249 534.458,336.082 535.5,338C 537.631,338.543 539.631,339.376 541.5,340.5C 540.529,341.962 540.862,343.295 542.5,344.5C 543.5,343.167 544.5,341.833 545.5,340.5C 546.85,342.735 548.35,344.068 550,344.5C 550.5,344 551,343.5 551.5,343C 549.681,340.944 549.015,338.777 549.5,336.5C 550.386,337.325 550.719,338.325 550.5,339.5C 552.262,339.357 553.929,339.691 555.5,340.5C 556.583,339.635 556.749,338.635 556,337.5C 555.667,337.833 555.333,338.167 555,338.5C 553.013,336.321 553.18,334.488 555.5,333C 555.167,332.667 554.833,332.333 554.5,332C 556.707,328.247 559.707,325.414 563.5,323.5 Z"/></g>
<g><path style="opacity:1" fill="#f9f9f9" d="M -0.5,398.5 C 20.8333,398.5 42.1667,398.5 63.5,398.5C 63.5,417.5 63.5,436.5 63.5,455.5C 42.1667,455.5 20.8333,455.5 -0.5,455.5C -0.5,436.5 -0.5,417.5 -0.5,398.5 Z"/></g>
<g><path style="opacity:1" fill="#f9f9f9" d="M 127.5,398.5 C 148.833,398.5 170.167,398.5 191.5,398.5C 191.826,417.41 191.493,436.243 190.5,455C 170.268,454.609 149.268,454.776 127.5,455.5C 127.5,436.5 127.5,417.5 127.5,398.5 Z"/></g>
<g><path style="opacity:1" fill="#f9f9f9" d="M 255.5,398.5 C 276.833,398.5 298.167,398.5 319.5,398.5C 319.5,417.5 319.5,436.5 319.5,455.5C 298.167,455.5 276.833,455.5 255.5,455.5C 255.5,436.5 255.5,417.5 255.5,398.5 Z"/></g>
<g><path style="opacity:1" fill="#ededed" d="M 319.5,398.5 C 340.833,398.5 362.167,398.5 383.5,398.5C 383.5,417.5 383.5,436.5 383.5,455.5C 362.167,455.5 340.833,455.5 319.5,455.5C 319.5,436.5 319.5,417.5 319.5,398.5 Z"/></g>
<g><path style="opacity:1" fill="#ededed" d="M 505.5,397.5 C 507.745,400.32 509.745,403.32 511.5,406.5C 510.844,418.44 511.177,430.44 512.5,442.5C 503.55,440.129 494.55,439.962 485.5,442C 475.39,445.553 466.057,450.387 457.5,456.5C 454.411,455.215 451.078,454.549 447.5,454.5C 447.174,435.924 447.507,417.424 448.5,399C 467.671,398.832 486.671,398.332 505.5,397.5 Z"/></g>
<g><path style="opacity:1" fill="#f9f9f9" d="M 639.5,398.5 C 660.833,398.5 682.167,398.5 703.5,398.5C 703.5,417.5 703.5,436.5 703.5,455.5C 682.087,454.907 660.754,454.907 639.5,455.5C 639.5,436.5 639.5,417.5 639.5,398.5 Z"/></g>
<g><path style="opacity:1" fill="#f9f9f9" d="M 895.5,398.5 C 916.833,398.5 938.167,398.5 959.5,398.5C 959.826,417.41 959.493,436.243 958.5,455C 937.503,455.5 916.503,455.667 895.5,455.5C 895.5,436.5 895.5,417.5 895.5,398.5 Z"/></g>
<g><path style="opacity:1" fill="#ededed" d="M 63.5,398.5 C 84.8333,398.5 106.167,398.5 127.5,398.5C 127.5,417.5 127.5,436.5 127.5,455.5C 106.167,455.5 84.8333,455.5 63.5,455.5C 63.5,436.5 63.5,417.5 63.5,398.5 Z"/></g>
<g><path style="opacity:1" fill="#ededed" d="M 639.5,398.5 C 639.5,417.5 639.5,436.5 639.5,455.5C 623.167,455.5 606.833,455.5 590.5,455.5C 592.895,435.054 587.561,417.054 574.5,401.5C 575.922,401.25 576.922,400.417 577.5,399C 598.164,398.5 618.831,398.333 639.5,398.5 Z"/></g>
<g><path style="opacity:1" fill="#ededed" d="M 703.5,398.5 C 724.833,398.5 746.167,398.5 767.5,398.5C 767.5,417.5 767.5,436.5 767.5,455.5C 746.167,455.5 724.833,455.5 703.5,455.5C 703.5,436.5 703.5,417.5 703.5,398.5 Z"/></g>
<g><path style="opacity:1" fill="#ededed" d="M 831.5,398.5 C 852.833,398.5 874.167,398.5 895.5,398.5C 895.5,417.5 895.5,436.5 895.5,455.5C 874.167,455.5 852.833,455.5 831.5,455.5C 831.5,436.5 831.5,417.5 831.5,398.5 Z"/></g>
<g><path style="opacity:1" fill="#f8f8f8" d="M 511.5,406.5 C 515.675,409.835 520.008,413.002 524.5,416C 531.412,418.061 538.079,420.728 544.5,424C 554.158,432.948 556.158,443.448 550.5,455.5C 543.443,455.76 536.443,455.427 529.5,454.5C 524.343,449.66 518.677,445.66 512.5,442.5C 511.177,430.44 510.844,418.44 511.5,406.5 Z"/></g>
<g><path style="opacity:1" fill="#ededed" d="M -0.5,455.5 C 20.8333,455.5 42.1667,455.5 63.5,455.5C 63.5,474.167 63.5,492.833 63.5,511.5C 42.2223,511.611 20.889,511.611 -0.5,511.5C -0.5,492.833 -0.5,474.167 -0.5,455.5 Z"/></g>
<g><path style="opacity:1" fill="#ededed" d="M 191.5,398.5 C 212.833,398.5 234.167,398.5 255.5,398.5C 255.5,417.5 255.5,436.5 255.5,455.5C 234.167,455.5 212.833,455.5 191.5,455.5C 191.5,474.167 191.5,492.833 191.5,511.5C 170.326,511.562 148.993,511.562 127.5,511.5C 127.5,492.833 127.5,474.167 127.5,455.5C 149.268,454.776 170.268,454.609 190.5,455C 191.493,436.243 191.826,417.41 191.5,398.5 Z"/></g>
<g><path style="opacity:1" fill="#ededed" d="M 255.5,455.5 C 276.833,455.5 298.167,455.5 319.5,455.5C 319.5,474.167 319.5,492.833 319.5,511.5C 298.167,511.5 276.833,511.5 255.5,511.5C 255.5,492.833 255.5,474.167 255.5,455.5 Z"/></g>
<g><path style="opacity:1" fill="#f9f9f9" d="M 319.5,455.5 C 340.833,455.5 362.167,455.5 383.5,455.5C 383.787,474.168 384.121,492.834 384.5,511.5C 392.833,511.5 401.167,511.5 409.5,511.5C 399.852,527.797 391.518,544.797 384.5,562.5C 383.764,559.305 383.097,555.971 382.5,552.5C 383.482,539.216 383.815,525.883 383.5,512.5C 362.167,512.5 340.833,512.5 319.5,512.5C 319.5,530.833 319.5,549.167 319.5,567.5C 298.194,567.467 276.861,567.801 255.5,568.5C 255.5,549.5 255.5,530.5 255.5,511.5C 276.833,511.5 298.167,511.5 319.5,511.5C 319.5,492.833 319.5,474.167 319.5,455.5 Z"/></g>
<g><path style="opacity:1" fill="#ececec" d="M 383.5,455.5 C 404.836,455.333 426.169,455.5 447.5,456C 444.931,459.157 445.265,461.99 448.5,464.5C 433.644,478.683 420.644,494.35 409.5,511.5C 401.167,511.5 392.833,511.5 384.5,511.5C 384.121,492.834 383.787,474.168 383.5,455.5 Z"/></g>
<g><path style="opacity:1" fill="#e8eaeb" d="M 529.5,454.5 C 536.443,455.427 543.443,455.76 550.5,455.5C 547.753,460.745 543.587,464.411 538,466.5C 534.921,462.677 532.088,458.677 529.5,454.5 Z"/></g>
<g><path style="opacity:1" fill="#f9f9f9" d="M 590.5,455.5 C 606.833,455.5 623.167,455.5 639.5,455.5C 639.5,474.167 639.5,492.833 639.5,511.5C 628.828,511.333 618.161,511.5 607.5,512C 604.574,512.218 601.74,512.718 599,513.5C 591.296,511.886 583.463,511.219 575.5,511.5C 575.5,507.167 575.5,502.833 575.5,498.5C 582.318,484.709 587.318,470.375 590.5,455.5 Z"/></g>
<g><path style="opacity:1" fill="#f9f9f9" d="M 767.5,398.5 C 788.833,398.5 810.167,398.5 831.5,398.5C 831.5,417.5 831.5,436.5 831.5,455.5C 816.395,455.302 801.729,454.968 787.5,454.5C 781.18,455.155 774.847,455.655 768.5,456C 767.507,474.424 767.174,492.924 767.5,511.5C 746.56,511.295 725.226,511.629 703.5,512.5C 703.5,530.833 703.5,549.167 703.5,567.5C 682.213,567.257 660.88,567.591 639.5,568.5C 639.5,549.833 639.5,531.167 639.5,512.5C 660.811,511.557 682.144,511.224 703.5,511.5C 703.5,492.833 703.5,474.167 703.5,455.5C 724.833,455.5 746.167,455.5 767.5,455.5C 767.5,436.5 767.5,417.5 767.5,398.5 Z"/></g>
<g><path style="opacity:1" fill="#ededed" d="M 831.5,455.5 C 831.5,474.167 831.5,492.833 831.5,511.5C 810.167,511.5 788.833,511.5 767.5,511.5C 767.174,492.924 767.507,474.424 768.5,456C 774.847,455.655 781.18,455.155 787.5,454.5C 801.729,454.968 816.395,455.302 831.5,455.5 Z"/></g>
<g><path style="opacity:1" fill="#f9faf9" d="M 831.5,455.5 C 852.833,455.5 874.167,455.5 895.5,455.5C 895.5,474.167 895.5,492.833 895.5,511.5C 874.316,511.615 852.983,511.615 831.5,511.5C 831.5,492.833 831.5,474.167 831.5,455.5 Z"/></g>
<g><path style="opacity:1" fill="#ededed" d="M 959.5,398.5 C 980.833,398.5 1002.17,398.5 1023.5,398.5C 1023.5,417.5 1023.5,436.5 1023.5,455.5C 1002.17,455.5 980.833,455.5 959.5,455.5C 959.5,474.167 959.5,492.833 959.5,511.5C 938.167,511.5 916.833,511.5 895.5,511.5C 895.5,492.833 895.5,474.167 895.5,455.5C 916.503,455.667 937.503,455.5 958.5,455C 959.493,436.243 959.826,417.41 959.5,398.5 Z"/></g>
<g><path style="opacity:1" fill="#f9faf9" d="M 1023.5,455.5 C 1023.5,474.167 1023.5,492.833 1023.5,511.5C 1002.17,511.5 980.833,511.5 959.5,511.5C 959.5,492.833 959.5,474.167 959.5,455.5C 980.833,455.5 1002.17,455.5 1023.5,455.5 Z"/></g>
<g><path style="opacity:1" fill="#97aabb" d="M 530.5,515.5 C 530.823,509.31 530.49,503.31 529.5,497.5C 529.393,495.621 529.893,495.288 531,496.5C 531.82,503.014 531.653,509.347 530.5,515.5 Z"/></g>
<g><path style="opacity:1" fill="#365c84" d="M 526.5,514.5 C 524.93,520.891 522.596,526.891 519.5,532.5C 517.745,531.673 516.912,530.006 517,527.5C 515.383,528.536 515.216,529.703 516.5,531C 515.146,532.294 513.812,532.46 512.5,531.5C 511.5,532.5 510.5,533.5 509.5,534.5C 510.582,534.749 511.915,534.915 513.5,535C 511.065,535.853 508.731,536.853 506.5,538C 509.384,539.037 510.05,540.871 508.5,543.5C 507.066,542.064 505.9,540.398 505,538.5C 504.667,539.167 504.333,539.833 504,540.5C 502.812,539.437 502.312,538.103 502.5,536.5C 500.833,536.5 499.167,536.5 497.5,536.5C 497.719,537.675 497.386,538.675 496.5,539.5C 493.435,538.024 492.102,535.857 492.5,533C 491.128,532.598 489.795,532.098 488.5,531.5C 487.289,532.274 487.289,533.107 488.5,534C 486.631,536.314 484.631,536.647 482.5,535C 483.554,533.612 483.72,532.112 483,530.5C 482,530.833 481,531.167 480,531.5C 479.51,532.793 479.343,534.127 479.5,535.5C 477.365,535.853 476.032,535.02 475.5,533C 475.944,531.238 476.444,531.405 477,533.5C 478.632,531.973 478.799,530.307 477.5,528.5C 471.064,530.45 470.398,533.284 475.5,537C 474.874,537.75 474.374,538.584 474,539.5C 472.025,539.492 470.191,538.492 468.5,536.5C 467.667,537.5 466.833,538.5 466,539.5C 465.333,538.167 464.667,538.167 464,539.5C 463.333,538.5 463.333,537.5 464,536.5C 465.255,535.789 466.421,534.956 467.5,534C 466.327,530.89 466.827,530.723 469,533.5C 471.314,531.631 471.647,529.631 470,527.5C 468.407,529.285 466.907,529.452 465.5,528C 467.267,526.512 467.601,525.012 466.5,523.5C 464.826,524.88 463.16,526.213 461.5,527.5C 459.912,526.99 458.745,525.99 458,524.5C 457.383,525.449 457.549,526.282 458.5,527C 457.299,527.903 456.465,529.069 456,530.5C 455.086,529.346 454.253,529.513 453.5,531C 457.022,532.331 457.355,534.164 454.5,536.5C 451.972,535.502 451.972,534.669 454.5,534C 452.285,532.186 449.952,531.686 447.5,532.5C 448.277,534.539 449.443,535.205 451,534.5C 451.667,535.5 451.667,536.5 451,537.5C 449.667,537.5 448.333,537.5 447,537.5C 446.667,536.833 446.333,536.167 446,535.5C 443.873,536.397 443.373,537.731 444.5,539.5C 446.21,538.313 447.71,538.646 449,540.5C 452.119,537.956 454.286,538.789 455.5,543C 453.74,543.965 453.406,545.132 454.5,546.5C 456.5,546.5 458.5,546.5 460.5,546.5C 459.653,547.845 458.487,548.845 457,549.5C 455.16,548.167 454.66,548.334 455.5,550C 453.998,550.583 452.665,551.416 451.5,552.5C 452.751,553.631 453.751,554.964 454.5,556.5C 454.176,558.569 453.342,558.902 452,557.5C 451.667,559.5 451.333,561.5 451,563.5C 450.097,562.299 448.931,561.465 447.5,561C 450.234,560.282 450.9,558.782 449.5,556.5C 448.449,557.885 447.116,558.885 445.5,559.5C 444.571,560.689 444.238,562.022 444.5,563.5C 445.5,563.5 446.5,563.5 447.5,563.5C 447.5,564.5 447.5,565.5 447.5,566.5C 445.738,566.643 444.071,566.309 442.5,565.5C 440.902,567.973 439.402,567.973 438,565.5C 437.837,567.387 438.671,568.887 440.5,570C 439.809,571.067 439.309,572.234 439,573.5C 437.933,572.809 436.766,572.309 435.5,572C 436.696,571.346 436.696,570.846 435.5,570.5C 434.522,570.977 433.689,571.643 433,572.5C 431.881,571.448 431.381,570.281 431.5,569C 433.248,568.92 434.915,568.087 436.5,566.5C 434.5,564.5 432.5,562.5 430.5,560.5C 432.291,559.236 434.291,558.569 436.5,558.5C 438.524,559.021 440.524,559.188 442.5,559C 442.982,557.992 443.148,556.825 443,555.5C 443.414,555.957 443.914,556.291 444.5,556.5C 446.193,554.973 448.027,553.64 450,552.5C 450.49,551.207 450.657,549.873 450.5,548.5C 448.04,549.937 445.374,550.937 442.5,551.5C 442.167,548.5 443.5,547.167 446.5,547.5C 446.662,545.473 446.495,543.473 446,541.5C 445.632,542.91 444.799,543.91 443.5,544.5C 442.36,541.117 440.36,538.45 437.5,536.5C 436.646,537.522 435.646,538.355 434.5,539C 436.112,539.72 437.612,539.554 439,538.5C 439.309,539.766 439.809,540.933 440.5,542C 438.884,542.615 437.551,543.615 436.5,545C 438.651,547.021 440.151,546.521 441,543.5C 441.309,544.766 441.809,545.933 442.5,547C 440.956,547.29 439.623,547.956 438.5,549C 439.167,549.333 439.833,549.667 440.5,550C 439.747,551.487 438.914,551.654 438,550.5C 437.581,551.672 436.915,552.672 436,553.5C 434.69,551.868 434.19,550.201 434.5,548.5C 431.19,547.209 430.856,547.709 433.5,550C 432.24,551.113 431.073,551.28 430,550.5C 429.293,552.081 428.46,553.581 427.5,555C 429.134,555.494 430.801,555.66 432.5,555.5C 432.649,556.552 432.483,557.552 432,558.5C 431.261,557.426 430.261,556.759 429,556.5C 427.549,557.355 426.049,557.522 424.5,557C 423.167,557.667 423.167,558.333 424.5,559C 428.353,559.662 428.353,560.496 424.5,561.5C 424.053,560.243 422.719,559.243 420.5,558.5C 419.935,560.51 418.935,562.176 417.5,563.5C 415.889,562.68 415.222,561.346 415.5,559.5C 416.5,559.5 417.5,559.5 418.5,559.5C 418.719,558.325 418.386,557.325 417.5,556.5C 416.167,557.5 414.833,558.5 413.5,559.5C 412.035,558.391 411.035,558.891 410.5,561C 413.326,563.071 415.659,565.571 417.5,568.5C 419.908,566.973 421.408,565.307 422,563.5C 422.145,565.272 423.311,566.939 425.5,568.5C 428.079,567.112 428.079,565.612 425.5,564C 425.833,563.833 426.167,563.667 426.5,563.5C 428.07,563.694 429.57,563.694 431,563.5C 431.692,564.025 432.192,564.692 432.5,565.5C 429.376,567.452 426.376,569.619 423.5,572C 424.177,574.537 423.177,576.537 420.5,578C 422.922,577.755 425.255,577.755 427.5,578C 426.377,579.044 425.044,579.71 423.5,580C 424.833,581 424.833,582 423.5,583C 424.253,584.487 425.086,584.654 426,583.5C 426.624,585.754 427.957,587.421 430,588.5C 430.49,587.207 430.657,585.873 430.5,584.5C 429.5,584.5 428.5,584.5 427.5,584.5C 427.67,583.178 427.337,582.011 426.5,581C 430.343,579.832 431.176,577.666 429,574.5C 428.282,575.451 427.449,575.617 426.5,575C 427.191,573.933 427.691,572.766 428,571.5C 431.064,572.688 433.23,574.188 434.5,576C 433.552,576.483 432.552,576.649 431.5,576.5C 431.714,578.144 431.38,579.644 430.5,581C 432.116,581.615 433.449,582.615 434.5,584C 432.043,585.512 432.043,586.846 434.5,588C 432.995,590.197 430.995,591.697 428.5,592.5C 425.192,592.617 424.859,591.95 427.5,590.5C 426.902,589.205 426.402,587.872 426,586.5C 423.415,589.157 423.248,591.824 425.5,594.5C 424.289,595.72 424.289,596.887 425.5,598C 424.833,598.333 424.167,598.667 423.5,599C 424.451,599.718 424.617,600.551 424,601.5C 422.518,599.219 420.851,599.219 419,601.5C 418.531,599.892 417.865,598.225 417,596.5C 415.324,596.963 413.824,598.296 412.5,600.5C 412.756,601.689 413.089,602.856 413.5,604C 412.276,607.184 411.109,607.017 410,603.5C 408.853,604.458 407.853,604.125 407,602.5C 405.99,597.905 407.157,596.905 410.5,599.5C 411.734,597.602 411.401,595.935 409.5,594.5C 412.076,593.117 411.742,592.283 408.5,592C 410.848,591.654 412.681,590.487 414,588.5C 416.891,590.882 419.558,593.548 422,596.5C 422.49,595.207 422.657,593.873 422.5,592.5C 421.448,592.649 420.448,592.483 419.5,592C 421.891,590.691 421.891,589.691 419.5,589C 421.074,588.664 422.408,587.831 423.5,586.5C 422.039,583.542 420.039,581.042 417.5,579C 414.878,579.416 414.212,580.916 415.5,583.5C 414.277,584.614 412.944,584.781 411.5,584C 410.167,583 410.167,582 411.5,581C 409.631,578.762 407.464,576.929 405,575.5C 404.5,575.667 404,575.833 403.5,576C 404.451,576.718 404.617,577.551 404,578.5C 402.667,577.167 401.333,577.167 400,578.5C 399.667,580.5 399.333,582.5 399,584.5C 398.5,585.667 397.667,586.5 396.5,587C 400.577,589.359 400.243,590.859 395.5,591.5C 395.785,589.712 395.452,588.045 394.5,586.5C 393.707,586.931 392.873,587.265 392,587.5C 391.955,586.077 390.789,585.077 388.5,584.5C 387.572,586.335 386.406,586.668 385,585.5C 384.42,582.453 384.753,582.119 386,584.5C 387.852,581.653 387.352,579.153 384.5,577C 385.108,576.13 385.941,575.63 387,575.5C 389.73,576.861 392.563,577.361 395.5,577C 392.972,575.684 392.972,574.517 395.5,573.5C 393.518,572.784 391.851,571.617 390.5,570C 391.833,568.333 391.833,566.667 390.5,565C 392.113,564.911 393.28,565.745 394,567.5C 395.385,566.449 396.385,565.116 397,563.5C 397.87,564.108 398.37,564.941 398.5,566C 396.811,567.358 395.478,569.025 394.5,571C 397.003,571.874 399.003,571.207 400.5,569C 400.167,568.667 399.833,568.333 399.5,568C 400.448,567.517 401.448,567.351 402.5,567.5C 402.5,566.167 402.5,564.833 402.5,563.5C 403.5,563.5 404.5,563.5 405.5,563.5C 403.097,568.025 404.097,572.025 408.5,575.5C 415.162,570.934 414.828,566.767 407.5,563C 409.204,560.763 410.204,558.263 410.5,555.5C 413.022,555.872 415.022,555.039 416.5,553C 412.541,553.209 410.874,551.375 411.5,547.5C 413.103,547.688 414.437,547.188 415.5,546C 414.346,543.427 412.68,541.261 410.5,539.5C 409.5,540 408.5,540.5 407.5,541C 406.939,542.566 407.606,543.899 409.5,545C 409.167,545.167 408.833,545.333 408.5,545.5C 406.624,544.125 404.624,542.958 402.5,542C 406.231,540.507 407.898,538.007 407.5,534.5C 408.478,534.977 409.311,535.643 410,536.5C 411.467,533.734 413.3,531.234 415.5,529C 414.672,528.085 413.672,527.419 412.5,527C 413.833,526.333 413.833,525.667 412.5,525C 414.407,524.868 415.907,525.702 417,527.5C 418.059,527.37 418.892,526.87 419.5,526C 418.549,525.282 418.383,524.449 419,523.5C 420,523.833 421,524.167 422,524.5C 424.311,522.483 423.977,521.149 421,520.5C 420.749,521.986 419.415,522.986 417,523.5C 413.474,520.071 413.808,518.737 418,519.5C 418.967,518.322 419.467,516.989 419.5,515.5C 420.906,516.668 422.072,516.335 423,514.5C 423.474,509.373 424.474,509.373 426,514.5C 426.333,513.833 426.667,513.167 427,512.5C 429.548,516.267 431.048,516.1 431.5,512C 437.177,508.339 442.344,503.839 447,498.5C 447.617,497.551 447.451,496.718 446.5,496C 445.167,495.667 443.833,495.333 442.5,495C 443.46,493.581 444.293,492.081 445,490.5C 446.119,491.552 446.619,492.719 446.5,494C 447.833,494.667 449.167,495.333 450.5,496C 450.167,496.333 449.833,496.667 449.5,497C 451.259,498.008 452.426,499.508 453,501.5C 455.084,497.664 457.417,493.997 460,490.5C 461.771,491.304 463.271,492.471 464.5,494C 464.167,494.333 463.833,494.667 463.5,495C 465.208,496.062 465.874,497.229 465.5,498.5C 466.85,496.98 468.183,496.313 469.5,496.5C 468.624,495.749 467.624,495.249 466.5,495C 469.167,494.333 469.167,493.667 466.5,493C 468,491.885 469.667,491.052 471.5,490.5C 471.736,491.247 472.07,492.08 472.5,493C 473.549,493.492 474.549,493.326 475.5,492.5C 476.364,494.197 477.697,495.363 479.5,496C 478.742,497.364 479.242,498.531 481,499.5C 481.138,497.568 480.638,495.734 479.5,494C 480.552,492.881 481.719,492.381 483,492.5C 484.092,495.044 484.759,497.711 485,500.5C 485.333,499.833 485.667,499.167 486,498.5C 486.833,500 488,501.167 489.5,502C 488.833,502.333 488.167,502.667 487.5,503C 488.784,503.684 489.951,503.517 491,502.5C 491.219,501.062 491.719,499.729 492.5,498.5C 496.747,502.484 497.414,501.817 494.5,496.5C 495.631,495.396 496.465,495.729 497,497.5C 498.335,494.085 500.668,491.752 504,490.5C 505.377,491.036 505.377,492.036 504,493.5C 503,493.5 502,493.5 501,493.5C 500.64,495.421 499.806,497.088 498.5,498.5C 500.07,498.694 501.57,498.694 503,498.5C 502.676,494.611 503.509,494.611 505.5,498.5C 504.515,500.098 504.349,501.765 505,503.5C 506.297,504.784 507.464,504.617 508.5,503C 507.549,502.282 507.383,501.449 508,500.5C 509.062,498.792 510.229,498.126 511.5,498.5C 509.892,497.758 508.225,497.591 506.5,498C 507.833,497.333 507.833,496.667 506.5,496C 509.274,496.214 511.94,496.214 514.5,496C 515.641,496.741 515.641,497.575 514.5,498.5C 519.899,501.22 519.565,503.053 513.5,504C 515.744,506.27 518.077,507.604 520.5,508C 516.17,511.486 516.503,512.652 521.5,511.5C 523.693,511.771 525.359,512.771 526.5,514.5 Z"/></g>
<g><path style="opacity:1" fill="#f9f9f9" d="M 63.5,455.5 C 84.8333,455.5 106.167,455.5 127.5,455.5C 127.5,474.167 127.5,492.833 127.5,511.5C 106.023,512.374 84.69,512.707 63.5,512.5C 63.5,531.167 63.5,549.833 63.5,568.5C 42.1667,568.5 20.8333,568.5 -0.5,568.5C -0.5,549.5 -0.5,530.5 -0.5,511.5C 20.889,511.611 42.2223,511.611 63.5,511.5C 63.5,492.833 63.5,474.167 63.5,455.5 Z"/></g>
<g><path style="opacity:1" fill="#f9f9f9" d="M 255.5,455.5 C 255.5,474.167 255.5,492.833 255.5,511.5C 234.89,512.098 214.057,512.098 193,511.5C 191.514,530.014 191.014,548.68 191.5,567.5C 170.921,568.193 149.588,568.527 127.5,568.5C 127.5,549.5 127.5,530.5 127.5,511.5C 148.993,511.562 170.326,511.562 191.5,511.5C 191.5,492.833 191.5,474.167 191.5,455.5C 212.833,455.5 234.167,455.5 255.5,455.5 Z"/></g>
<g><path style="opacity:1" fill="#f8f8f9" d="M 567.5,511.5 C 570.127,512.092 572.794,512.425 575.5,512.5C 575.5,531.167 575.5,549.833 575.5,568.5C 555.684,568.354 536.017,568.021 516.5,567.5C 535.63,550.707 552.63,532.04 567.5,511.5 Z"/></g>
<g><path style="opacity:1" fill="#f9f9f9" d="M 767.5,511.5 C 788.833,511.5 810.167,511.5 831.5,511.5C 831.826,530.41 831.493,549.243 830.5,568C 809.65,568.268 788.65,568.435 767.5,568.5C 767.5,549.5 767.5,530.5 767.5,511.5 Z"/></g>
<g><path style="opacity:1" fill="#f9f9f9" d="M 895.5,511.5 C 916.833,511.5 938.167,511.5 959.5,511.5C 959.5,530.167 959.5,548.833 959.5,567.5C 938.195,568.409 916.862,568.742 895.5,568.5C 895.5,549.5 895.5,530.5 895.5,511.5 Z"/></g>
<g><path style="opacity:1" fill="#ededed" d="M 127.5,511.5 C 127.5,530.5 127.5,549.5 127.5,568.5C 106.167,568.5 84.8333,568.5 63.5,568.5C 63.5,549.833 63.5,531.167 63.5,512.5C 84.69,512.707 106.023,512.374 127.5,511.5 Z"/></g>
<g><path style="opacity:1" fill="#ededed" d="M 703.5,455.5 C 703.5,474.167 703.5,492.833 703.5,511.5C 682.144,511.224 660.811,511.557 639.5,512.5C 639.5,531.167 639.5,549.833 639.5,568.5C 618.167,568.5 596.833,568.5 575.5,568.5C 575.5,549.833 575.5,531.167 575.5,512.5C 572.794,512.425 570.127,512.092 567.5,511.5C 569.919,506.991 572.586,502.658 575.5,498.5C 575.5,502.833 575.5,507.167 575.5,511.5C 583.463,511.219 591.296,511.886 599,513.5C 601.74,512.718 604.574,512.218 607.5,512C 618.161,511.5 628.828,511.333 639.5,511.5C 639.5,492.833 639.5,474.167 639.5,455.5C 660.754,454.907 682.087,454.907 703.5,455.5 Z"/></g>
<g><path style="opacity:1" fill="#ededed" d="M -0.5,568.5 C 20.8333,568.5 42.1667,568.5 63.5,568.5C 63.5,587.167 63.5,605.833 63.5,624.5C 42.1667,624.5 20.8333,624.5 -0.5,624.5C -0.5,605.833 -0.5,587.167 -0.5,568.5 Z"/></g>
<g><path style="opacity:1" fill="#f9faf9" d="M 63.5,568.5 C 84.8333,568.5 106.167,568.5 127.5,568.5C 127.5,587.167 127.5,605.833 127.5,624.5C 106.167,624.5 84.8333,624.5 63.5,624.5C 63.5,605.833 63.5,587.167 63.5,568.5 Z"/></g>
<g><path style="opacity:1" fill="#ededed" d="M 255.5,511.5 C 255.5,530.5 255.5,549.5 255.5,568.5C 234.167,568.5 212.833,568.5 191.5,568.5C 191.5,587.167 191.5,605.833 191.5,624.5C 170.167,624.5 148.833,624.5 127.5,624.5C 127.5,605.833 127.5,587.167 127.5,568.5C 149.588,568.527 170.921,568.193 191.5,567.5C 191.014,548.68 191.514,530.014 193,511.5C 214.057,512.098 234.89,512.098 255.5,511.5 Z"/></g>
<g><path style="opacity:1" fill="#f9faf9" d="M 255.5,568.5 C 255.5,587.167 255.5,605.833 255.5,624.5C 234.084,624.829 212.75,624.829 191.5,624.5C 191.5,605.833 191.5,587.167 191.5,568.5C 212.833,568.5 234.167,568.5 255.5,568.5 Z"/></g>
<g><path style="opacity:1" fill="#ededed" d="M 384.5,562.5 C 383.736,565.018 382.736,567.351 381.5,569.5C 361.007,568.503 340.34,568.169 319.5,568.5C 319.5,587.167 319.5,605.833 319.5,624.5C 298.167,624.5 276.833,624.5 255.5,624.5C 255.5,605.833 255.5,587.167 255.5,568.5C 276.861,567.801 298.194,567.467 319.5,567.5C 319.5,549.167 319.5,530.833 319.5,512.5C 340.833,512.5 362.167,512.5 383.5,512.5C 383.815,525.883 383.482,539.216 382.5,552.5C 383.097,555.971 383.764,559.305 384.5,562.5 Z"/></g>
<g><path style="opacity:1" fill="#f9f9f9" d="M 381.5,569.5 C 375.257,589.137 370.591,609.137 367.5,629.5C 366.819,627.842 365.985,626.175 365,624.5C 349.92,624.705 334.753,624.705 319.5,624.5C 319.5,605.833 319.5,587.167 319.5,568.5C 340.34,568.169 361.007,568.503 381.5,569.5 Z"/></g>
<g><path style="opacity:1" fill="#ededed" d="M 516.5,567.5 C 536.017,568.021 555.684,568.354 575.5,568.5C 575.5,587.167 575.5,605.833 575.5,624.5C 554.167,624.5 532.833,624.5 511.5,624.5C 511.746,620.849 511.746,617.349 511.5,614C 512.167,610.667 512.833,607.333 513.5,604C 512.844,593.402 512.177,582.902 511.5,572.5C 512.833,570.5 514.5,568.833 516.5,567.5 Z"/></g>
<g><path style="opacity:1" fill="#f9faf9" d="M 575.5,568.5 C 596.833,568.5 618.167,568.5 639.5,568.5C 639.5,587.167 639.5,605.833 639.5,624.5C 618.167,624.5 596.833,624.5 575.5,624.5C 575.5,605.833 575.5,587.167 575.5,568.5 Z"/></g>
<g><path style="opacity:1" fill="#ededed" d="M 767.5,511.5 C 767.5,530.5 767.5,549.5 767.5,568.5C 746.167,568.5 724.833,568.5 703.5,568.5C 703.5,587.167 703.5,605.833 703.5,624.5C 682.167,624.5 660.833,624.5 639.5,624.5C 639.5,605.833 639.5,587.167 639.5,568.5C 660.88,567.591 682.213,567.257 703.5,567.5C 703.5,549.167 703.5,530.833 703.5,512.5C 725.226,511.629 746.56,511.295 767.5,511.5 Z"/></g>
<g><path style="opacity:1" fill="#f9faf9" d="M 767.5,568.5 C 767.5,587.167 767.5,605.833 767.5,624.5C 746.167,624.5 724.833,624.5 703.5,624.5C 703.5,605.833 703.5,587.167 703.5,568.5C 724.833,568.5 746.167,568.5 767.5,568.5 Z"/></g>
<g><path style="opacity:1" fill="#ededed" d="M 831.5,511.5 C 852.983,511.615 874.316,511.615 895.5,511.5C 895.5,530.5 895.5,549.5 895.5,568.5C 874.167,568.5 852.833,568.5 831.5,568.5C 831.5,587.167 831.5,605.833 831.5,624.5C 810.167,624.5 788.833,624.5 767.5,624.5C 767.5,605.833 767.5,587.167 767.5,568.5C 788.65,568.435 809.65,568.268 830.5,568C 831.493,549.243 831.826,530.41 831.5,511.5 Z"/></g>
<g><path style="opacity:1" fill="#f9faf9" d="M 895.5,568.5 C 895.5,587.167 895.5,605.833 895.5,624.5C 874.167,624.5 852.833,624.5 831.5,624.5C 831.5,605.833 831.5,587.167 831.5,568.5C 852.833,568.5 874.167,568.5 895.5,568.5 Z"/></g>
<g><path style="opacity:1" fill="#ededed" d="M 959.5,511.5 C 980.833,511.5 1002.17,511.5 1023.5,511.5C 1023.5,530.5 1023.5,549.5 1023.5,568.5C 1002.17,568.5 980.833,568.5 959.5,568.5C 959.5,587.167 959.5,605.833 959.5,624.5C 938.167,624.5 916.833,624.5 895.5,624.5C 895.5,605.833 895.5,587.167 895.5,568.5C 916.862,568.742 938.195,568.409 959.5,567.5C 959.5,548.833 959.5,530.167 959.5,511.5 Z"/></g>
<g><path style="opacity:1" fill="#f9faf9" d="M 1023.5,568.5 C 1023.5,587.167 1023.5,605.833 1023.5,624.5C 1002.17,624.5 980.833,624.5 959.5,624.5C 959.5,605.833 959.5,587.167 959.5,568.5C 980.833,568.5 1002.17,568.5 1023.5,568.5 Z"/></g>
<g><path style="opacity:1" fill="#f1f2f2" d="M 529.5,497.5 C 530.49,503.31 530.823,509.31 530.5,515.5C 530.091,524.137 528.258,532.47 525,540.5C 510.719,567.781 490.052,588.781 463,603.5C 462.5,611.159 462.334,618.826 462.5,626.5C 462.649,627.552 462.483,628.552 462,629.5C 461.727,627.899 461.227,626.399 460.5,625C 456.179,624.501 451.846,624.334 447.5,624.5C 437.167,624.5 426.833,624.5 416.5,624.5C 419.665,620.502 423.332,617.002 427.5,614C 450.048,602.233 471.048,588.233 490.5,572C 502.75,560.639 512.417,547.473 519.5,532.5C 522.596,526.891 524.93,520.891 526.5,514.5C 527.963,508.927 528.963,503.26 529.5,497.5 Z"/></g>
<g><path style="opacity:1" fill="#f9faf9" d="M -0.5,624.5 C 20.8333,624.5 42.1667,624.5 63.5,624.5C 63.5,643.5 63.5,662.5 63.5,681.5C 42.1667,681.5 20.8333,681.5 -0.5,681.5C -0.5,662.5 -0.5,643.5 -0.5,624.5 Z"/></g>
<g><path style="opacity:1" fill="#f9faf9" d="M 127.5,624.5 C 148.833,624.5 170.167,624.5 191.5,624.5C 191.5,643.5 191.5,662.5 191.5,681.5C 170.167,681.5 148.833,681.5 127.5,681.5C 127.5,662.5 127.5,643.5 127.5,624.5 Z"/></g>
<g><path style="opacity:1" fill="#f9faf9" d="M 255.5,624.5 C 276.833,624.5 298.167,624.5 319.5,624.5C 319.5,643.5 319.5,662.5 319.5,681.5C 298.167,681.5 276.833,681.5 255.5,681.5C 255.5,662.5 255.5,643.5 255.5,624.5 Z"/></g>
<g><path style="opacity:1" fill="#f9f9f9" d="M 511.5,572.5 C 512.177,582.902 512.844,593.402 513.5,604C 512.833,607.333 512.167,610.667 511.5,614C 511.746,617.349 511.746,620.849 511.5,624.5C 532.833,624.5 554.167,624.5 575.5,624.5C 575.5,643.5 575.5,662.5 575.5,681.5C 554.167,681.5 532.833,681.5 511.5,681.5C 511.5,662.833 511.5,644.167 511.5,625.5C 503.713,625.388 496.046,625.388 488.5,625.5C 487.614,624.675 487.281,623.675 487.5,622.5C 491.252,603.666 499.252,586.999 511.5,572.5 Z"/></g>
<g><path style="opacity:1" fill="#f9faf9" d="M 639.5,624.5 C 660.833,624.5 682.167,624.5 703.5,624.5C 703.5,643.5 703.5,662.5 703.5,681.5C 682.167,681.5 660.833,681.5 639.5,681.5C 639.5,662.5 639.5,643.5 639.5,624.5 Z"/></g>
<g><path style="opacity:1" fill="#f9faf9" d="M 767.5,624.5 C 788.833,624.5 810.167,624.5 831.5,624.5C 831.5,643.5 831.5,662.5 831.5,681.5C 810.167,681.5 788.833,681.5 767.5,681.5C 767.5,662.5 767.5,643.5 767.5,624.5 Z"/></g>
<g><path style="opacity:1" fill="#f9faf9" d="M 895.5,624.5 C 916.833,624.5 938.167,624.5 959.5,624.5C 959.5,643.5 959.5,662.5 959.5,681.5C 938.167,681.5 916.833,681.5 895.5,681.5C 895.5,662.5 895.5,643.5 895.5,624.5 Z"/></g>
<g><path style="opacity:1" fill="#ededed" d="M 63.5,624.5 C 84.8333,624.5 106.167,624.5 127.5,624.5C 127.5,643.5 127.5,662.5 127.5,681.5C 106.167,681.5 84.8333,681.5 63.5,681.5C 63.5,662.5 63.5,643.5 63.5,624.5 Z"/></g>
<g><path style="opacity:1" fill="#ededed" d="M 191.5,624.5 C 212.75,624.829 234.084,624.829 255.5,624.5C 255.5,643.5 255.5,662.5 255.5,681.5C 234.167,681.5 212.833,681.5 191.5,681.5C 191.5,662.5 191.5,643.5 191.5,624.5 Z"/></g>
<g><path style="opacity:1" fill="#ededed" d="M 319.5,624.5 C 334.753,624.705 349.92,624.705 365,624.5C 365.985,626.175 366.819,627.842 367.5,629.5C 365.947,641.106 365.281,652.772 365.5,664.5C 371.712,662.728 377.712,660.395 383.5,657.5C 383.5,665.5 383.5,673.5 383.5,681.5C 362.167,681.5 340.833,681.5 319.5,681.5C 319.5,662.5 319.5,643.5 319.5,624.5 Z"/></g>
<g><path style="opacity:1" fill="#ececec" d="M 447.5,624.5 C 451.846,624.334 456.179,624.501 460.5,625C 461.227,626.399 461.727,627.899 462,629.5C 462.483,628.552 462.649,627.552 462.5,626.5C 464.429,645.948 470.762,663.948 481.5,680.5C 470.333,681.823 459.167,681.823 448,680.5C 447.5,661.836 447.333,643.17 447.5,624.5 Z"/></g>
<g><path style="opacity:1" fill="#eceded" d="M 487.5,622.5 C 487.281,623.675 487.614,624.675 488.5,625.5C 496.046,625.388 503.713,625.388 511.5,625.5C 511.5,644.167 511.5,662.833 511.5,681.5C 505.491,681.334 499.491,681.501 493.5,682C 492.748,682.671 492.414,683.504 492.5,684.5C 485.941,666.848 483.775,648.515 486,629.5C 486.186,626.964 486.686,624.631 487.5,622.5 Z"/></g>
<g><path style="opacity:1" fill="#ededed" d="M 575.5,624.5 C 596.833,624.5 618.167,624.5 639.5,624.5C 639.5,643.5 639.5,662.5 639.5,681.5C 618.167,681.5 596.833,681.5 575.5,681.5C 575.5,662.5 575.5,643.5 575.5,624.5 Z"/></g>
<g><path style="opacity:1" fill="#ededed" d="M 703.5,624.5 C 724.833,624.5 746.167,624.5 767.5,624.5C 767.5,643.5 767.5,662.5 767.5,681.5C 746.167,681.5 724.833,681.5 703.5,681.5C 703.5,662.5 703.5,643.5 703.5,624.5 Z"/></g>
<g><path style="opacity:1" fill="#ededed" d="M 831.5,624.5 C 852.833,624.5 874.167,624.5 895.5,624.5C 895.5,643.5 895.5,662.5 895.5,681.5C 874.167,681.5 852.833,681.5 831.5,681.5C 831.5,662.5 831.5,643.5 831.5,624.5 Z"/></g>
<g><path style="opacity:1" fill="#ededed" d="M 959.5,624.5 C 980.833,624.5 1002.17,624.5 1023.5,624.5C 1023.5,643.5 1023.5,662.5 1023.5,681.5C 1002.17,681.5 980.833,681.5 959.5,681.5C 959.5,662.5 959.5,643.5 959.5,624.5 Z"/></g>
<g><path style="opacity:1" fill="#ededed" d="M -0.5,681.5 C 20.8333,681.5 42.1667,681.5 63.5,681.5C 63.5,700.5 63.5,719.5 63.5,738.5C 42.1667,738.5 20.8333,738.5 -0.5,738.5C -0.5,719.5 -0.5,700.5 -0.5,681.5 Z"/></g>
<g><path style="opacity:1" fill="#f9faf9" d="M 63.5,681.5 C 84.8333,681.5 106.167,681.5 127.5,681.5C 127.5,700.5 127.5,719.5 127.5,738.5C 106.167,738.5 84.8333,738.5 63.5,738.5C 63.5,719.5 63.5,700.5 63.5,681.5 Z"/></g>
<g><path style="opacity:1" fill="#ededed" d="M 127.5,681.5 C 148.833,681.5 170.167,681.5 191.5,681.5C 191.5,700.5 191.5,719.5 191.5,738.5C 170.167,738.5 148.833,738.5 127.5,738.5C 127.5,719.5 127.5,700.5 127.5,681.5 Z"/></g>
<g><path style="opacity:1" fill="#f9faf9" d="M 191.5,681.5 C 212.833,681.5 234.167,681.5 255.5,681.5C 255.5,700.5 255.5,719.5 255.5,738.5C 234.167,738.5 212.833,738.5 191.5,738.5C 191.5,719.5 191.5,700.5 191.5,681.5 Z"/></g>
<g><path style="opacity:1" fill="#ededed" d="M 255.5,681.5 C 276.833,681.5 298.167,681.5 319.5,681.5C 319.5,700.5 319.5,719.5 319.5,738.5C 298.167,738.5 276.833,738.5 255.5,738.5C 255.5,719.5 255.5,700.5 255.5,681.5 Z"/></g>
<g><path style="opacity:1" fill="#f9faf9" d="M 319.5,681.5 C 340.833,681.5 362.167,681.5 383.5,681.5C 383.5,700.5 383.5,719.5 383.5,738.5C 362.167,738.5 340.833,738.5 319.5,738.5C 319.5,719.5 319.5,700.5 319.5,681.5 Z"/></g>
<g><path style="opacity:1" fill="#ededed" d="M 383.5,681.5 C 404.833,681.5 426.167,681.5 447.5,681.5C 447.5,700.5 447.5,719.5 447.5,738.5C 426.167,738.5 404.833,738.5 383.5,738.5C 383.5,719.5 383.5,700.5 383.5,681.5 Z"/></g>
<g><path style="opacity:1" fill="#f9f9f9" d="M 416.5,624.5 C 426.833,624.5 437.167,624.5 447.5,624.5C 447.333,643.17 447.5,661.836 448,680.5C 459.167,681.823 470.333,681.823 481.5,680.5C 486.51,687.135 492.01,693.469 498,699.5C 496.105,694.659 494.271,689.659 492.5,684.5C 492.414,683.504 492.748,682.671 493.5,682C 499.491,681.501 505.491,681.334 511.5,681.5C 511.5,700.5 511.5,719.5 511.5,738.5C 490.167,738.5 468.833,738.5 447.5,738.5C 447.5,719.5 447.5,700.5 447.5,681.5C 426.167,681.5 404.833,681.5 383.5,681.5C 383.5,673.5 383.5,665.5 383.5,657.5C 386.433,655.355 389.433,653.188 392.5,651C 400.868,642.377 408.868,633.544 416.5,624.5 Z"/></g>
<g><path style="opacity:1" fill="#ededed" d="M 511.5,681.5 C 532.833,681.5 554.167,681.5 575.5,681.5C 575.5,700.5 575.5,719.5 575.5,738.5C 554.167,738.5 532.833,738.5 511.5,738.5C 511.5,719.5 511.5,700.5 511.5,681.5 Z"/></g>
<g><path style="opacity:1" fill="#ededed" d="M 639.5,681.5 C 660.833,681.5 682.167,681.5 703.5,681.5C 703.5,700.5 703.5,719.5 703.5,738.5C 682.497,738.667 661.497,738.5 640.5,738C 639.507,719.243 639.174,700.41 639.5,681.5 Z"/></g>
<g><path style="opacity:1" fill="#f9faf9" d="M 703.5,681.5 C 724.833,681.5 746.167,681.5 767.5,681.5C 767.5,700.5 767.5,719.5 767.5,738.5C 746.167,738.5 724.833,738.5 703.5,738.5C 703.5,719.5 703.5,700.5 703.5,681.5 Z"/></g>
<g><path style="opacity:1" fill="#ededed" d="M 767.5,681.5 C 788.833,681.5 810.167,681.5 831.5,681.5C 831.5,700.5 831.5,719.5 831.5,738.5C 810.167,738.5 788.833,738.5 767.5,738.5C 767.5,719.5 767.5,700.5 767.5,681.5 Z"/></g>
<g><path style="opacity:1" fill="#f9faf9" d="M 831.5,681.5 C 852.833,681.5 874.167,681.5 895.5,681.5C 895.5,700.5 895.5,719.5 895.5,738.5C 874.167,738.5 852.833,738.5 831.5,738.5C 831.5,719.5 831.5,700.5 831.5,681.5 Z"/></g>
<g><path style="opacity:1" fill="#ededed" d="M 895.5,681.5 C 916.833,681.5 938.167,681.5 959.5,681.5C 959.5,700.5 959.5,719.5 959.5,738.5C 938.167,738.5 916.833,738.5 895.5,738.5C 895.5,719.5 895.5,700.5 895.5,681.5 Z"/></g>
<g><path style="opacity:1" fill="#f9faf9" d="M 959.5,681.5 C 980.833,681.5 1002.17,681.5 1023.5,681.5C 1023.5,700.5 1023.5,719.5 1023.5,738.5C 1002.17,738.5 980.833,738.5 959.5,738.5C 959.5,719.5 959.5,700.5 959.5,681.5 Z"/></g>
<g><path style="opacity:1" fill="#f9faf9" d="M -0.5,738.5 C 20.8333,738.5 42.1667,738.5 63.5,738.5C 63.5,757.5 63.5,776.5 63.5,795.5C 42.1667,795.5 20.8333,795.5 -0.5,795.5C -0.5,776.5 -0.5,757.5 -0.5,738.5 Z"/></g>
<g><path style="opacity:1" fill="#fafaf9" d="M 127.5,738.5 C 148.833,738.5 170.167,738.5 191.5,738.5C 191.5,757.5 191.5,776.5 191.5,795.5C 170.167,795.5 148.833,795.5 127.5,795.5C 127.5,776.5 127.5,757.5 127.5,738.5 Z"/></g>
<g><path style="opacity:1" fill="#f9f9f9" d="M 255.5,738.5 C 276.833,738.5 298.167,738.5 319.5,738.5C 319.5,757.5 319.5,776.5 319.5,795.5C 298.167,795.5 276.833,795.5 255.5,795.5C 255.5,776.5 255.5,757.5 255.5,738.5 Z"/></g>
<g><path style="opacity:1" fill="#fafaf9" d="M 383.5,738.5 C 404.833,738.5 426.167,738.5 447.5,738.5C 447.5,757.5 447.5,776.5 447.5,795.5C 426.167,795.5 404.833,795.5 383.5,795.5C 383.5,776.5 383.5,757.5 383.5,738.5 Z"/></g>
<g><path style="opacity:1" fill="#f9faf9" d="M 511.5,738.5 C 532.833,738.5 554.167,738.5 575.5,738.5C 575.5,757.5 575.5,776.5 575.5,795.5C 554.167,795.5 532.833,795.5 511.5,795.5C 511.5,776.5 511.5,757.5 511.5,738.5 Z"/></g>
<g><path style="opacity:1" fill="#f9f9f9" d="M 575.5,681.5 C 596.833,681.5 618.167,681.5 639.5,681.5C 639.174,700.41 639.507,719.243 640.5,738C 661.497,738.5 682.497,738.667 703.5,738.5C 703.5,757.5 703.5,776.5 703.5,795.5C 682.497,795.333 661.497,795.5 640.5,796C 639.507,814.757 639.174,833.59 639.5,852.5C 618.167,852.5 596.833,852.5 575.5,852.5C 575.5,833.5 575.5,814.5 575.5,795.5C 596.833,795.5 618.167,795.5 639.5,795.5C 639.5,776.5 639.5,757.5 639.5,738.5C 618.167,738.5 596.833,738.5 575.5,738.5C 575.5,719.5 575.5,700.5 575.5,681.5 Z"/></g>
<g><path style="opacity:1" fill="#f9faf9" d="M 767.5,738.5 C 788.833,738.5 810.167,738.5 831.5,738.5C 831.5,757.5 831.5,776.5 831.5,795.5C 810.167,795.5 788.833,795.5 767.5,795.5C 767.5,776.5 767.5,757.5 767.5,738.5 Z"/></g>
<g><path style="opacity:1" fill="#ededed" d="M 831.5,738.5 C 852.833,738.5 874.167,738.5 895.5,738.5C 895.5,757.5 895.5,776.5 895.5,795.5C 874.167,795.5 852.833,795.5 831.5,795.5C 831.5,776.5 831.5,757.5 831.5,738.5 Z"/></g>
<g><path style="opacity:1" fill="#fafaf9" d="M 895.5,738.5 C 916.833,738.5 938.167,738.5 959.5,738.5C 959.5,757.5 959.5,776.5 959.5,795.5C 938.167,795.5 916.833,795.5 895.5,795.5C 895.5,776.5 895.5,757.5 895.5,738.5 Z"/></g>
<g><path style="opacity:1" fill="#ededed" d="M 63.5,738.5 C 84.8333,738.5 106.167,738.5 127.5,738.5C 127.5,757.5 127.5,776.5 127.5,795.5C 106.167,795.5 84.8333,795.5 63.5,795.5C 63.5,776.5 63.5,757.5 63.5,738.5 Z"/></g>
<g><path style="opacity:1" fill="#ededed" d="M 191.5,738.5 C 212.833,738.5 234.167,738.5 255.5,738.5C 255.5,757.5 255.5,776.5 255.5,795.5C 234.167,795.5 212.833,795.5 191.5,795.5C 191.5,776.5 191.5,757.5 191.5,738.5 Z"/></g>
<g><path style="opacity:1" fill="#ededed" d="M 319.5,738.5 C 340.833,738.5 362.167,738.5 383.5,738.5C 383.5,757.5 383.5,776.5 383.5,795.5C 362.167,795.5 340.833,795.5 319.5,795.5C 319.5,776.5 319.5,757.5 319.5,738.5 Z"/></g>
<g><path style="opacity:1" fill="#ededed" d="M 447.5,738.5 C 468.833,738.5 490.167,738.5 511.5,738.5C 511.5,757.5 511.5,776.5 511.5,795.5C 490.167,795.5 468.833,795.5 447.5,795.5C 447.5,776.5 447.5,757.5 447.5,738.5 Z"/></g>
<g><path style="opacity:1" fill="#ededed" d="M 575.5,738.5 C 596.833,738.5 618.167,738.5 639.5,738.5C 639.5,757.5 639.5,776.5 639.5,795.5C 618.167,795.5 596.833,795.5 575.5,795.5C 575.5,776.5 575.5,757.5 575.5,738.5 Z"/></g>
<g><path style="opacity:1" fill="#ededed" d="M 703.5,738.5 C 724.833,738.5 746.167,738.5 767.5,738.5C 767.5,757.5 767.5,776.5 767.5,795.5C 746.167,795.5 724.833,795.5 703.5,795.5C 703.5,776.5 703.5,757.5 703.5,738.5 Z"/></g>
<g><path style="opacity:1" fill="#ededed" d="M 959.5,738.5 C 980.833,738.5 1002.17,738.5 1023.5,738.5C 1023.5,757.5 1023.5,776.5 1023.5,795.5C 1002.17,795.5 980.833,795.5 959.5,795.5C 959.5,776.5 959.5,757.5 959.5,738.5 Z"/></g>
<g><path style="opacity:1" fill="#f9faf9" d="M 63.5,795.5 C 84.8333,795.5 106.167,795.5 127.5,795.5C 127.5,814.5 127.5,833.5 127.5,852.5C 106.167,852.5 84.8333,852.5 63.5,852.5C 63.5,833.5 63.5,814.5 63.5,795.5 Z"/></g>
<g><path style="opacity:1" fill="#ededed" d="M 127.5,795.5 C 148.833,795.5 170.167,795.5 191.5,795.5C 191.5,814.5 191.5,833.5 191.5,852.5C 170.167,852.5 148.833,852.5 127.5,852.5C 127.5,833.5 127.5,814.5 127.5,795.5 Z"/></g>
<g><path style="opacity:1" fill="#ededed" d="M 255.5,795.5 C 276.833,795.5 298.167,795.5 319.5,795.5C 319.5,814.5 319.5,833.5 319.5,852.5C 315.5,852.5 311.5,852.5 307.5,852.5C 293.326,851.26 279.326,851.26 265.5,852.5C 262.167,852.5 258.833,852.5 255.5,852.5C 255.5,833.5 255.5,814.5 255.5,795.5 Z"/></g>
<g><path style="opacity:1" fill="#f9faf9" d="M 319.5,795.5 C 340.833,795.5 362.167,795.5 383.5,795.5C 383.5,814.5 383.5,833.5 383.5,852.5C 362.167,852.5 340.833,852.5 319.5,852.5C 319.5,833.5 319.5,814.5 319.5,795.5 Z"/></g>
<g><path style="opacity:1" fill="#fafaf9" d="M 447.5,795.5 C 468.833,795.5 490.167,795.5 511.5,795.5C 511.5,814.5 511.5,833.5 511.5,852.5C 490.167,852.5 468.833,852.5 447.5,852.5C 447.5,833.5 447.5,814.5 447.5,795.5 Z"/></g>
<g><path style="opacity:1" fill="#ededed" d="M 511.5,795.5 C 532.833,795.5 554.167,795.5 575.5,795.5C 575.5,814.5 575.5,833.5 575.5,852.5C 554.167,852.5 532.833,852.5 511.5,852.5C 511.5,833.5 511.5,814.5 511.5,795.5 Z"/></g>
<g><path style="opacity:1" fill="#ededed" d="M 703.5,795.5 C 703.5,814.5 703.5,833.5 703.5,852.5C 682.167,852.5 660.833,852.5 639.5,852.5C 639.174,833.59 639.507,814.757 640.5,796C 661.497,795.5 682.497,795.333 703.5,795.5 Z"/></g>
<g><path style="opacity:1" fill="#f9faf9" d="M 703.5,795.5 C 724.833,795.5 746.167,795.5 767.5,795.5C 767.5,814.5 767.5,833.5 767.5,852.5C 746.167,852.5 724.833,852.5 703.5,852.5C 703.5,833.5 703.5,814.5 703.5,795.5 Z"/></g>
<g><path style="opacity:1" fill="#ededed" d="M 767.5,795.5 C 788.833,795.5 810.167,795.5 831.5,795.5C 831.5,814.5 831.5,833.5 831.5,852.5C 810.167,852.5 788.833,852.5 767.5,852.5C 767.5,833.5 767.5,814.5 767.5,795.5 Z"/></g>
<g><path style="opacity:1" fill="#f9faf9" d="M 831.5,795.5 C 852.833,795.5 874.167,795.5 895.5,795.5C 895.5,814.5 895.5,833.5 895.5,852.5C 874.167,852.5 852.833,852.5 831.5,852.5C 831.5,833.5 831.5,814.5 831.5,795.5 Z"/></g>
<g><path style="opacity:1" fill="#f9faf9" d="M 959.5,795.5 C 980.833,795.5 1002.17,795.5 1023.5,795.5C 1023.5,814.5 1023.5,833.5 1023.5,852.5C 1002.17,852.5 980.833,852.5 959.5,852.5C 959.5,833.5 959.5,814.5 959.5,795.5 Z"/></g>
<g><path style="opacity:1" fill="#ededed" d="M -0.5,795.5 C 20.8333,795.5 42.1667,795.5 63.5,795.5C 63.5,814.5 63.5,833.5 63.5,852.5C 42.1667,852.5 20.8333,852.5 -0.5,852.5C -0.5,833.5 -0.5,814.5 -0.5,795.5 Z"/></g>
<g><path style="opacity:1" fill="#ededed" d="M 383.5,795.5 C 404.833,795.5 426.167,795.5 447.5,795.5C 447.5,814.5 447.5,833.5 447.5,852.5C 426.167,852.5 404.833,852.5 383.5,852.5C 383.5,833.5 383.5,814.5 383.5,795.5 Z"/></g>
<g><path style="opacity:1" fill="#ededed" d="M 895.5,795.5 C 916.833,795.5 938.167,795.5 959.5,795.5C 959.5,814.5 959.5,833.5 959.5,852.5C 938.167,852.5 916.833,852.5 895.5,852.5C 895.5,833.5 895.5,814.5 895.5,795.5 Z"/></g>
<g><path style="opacity:1" fill="#f2f2f2" d="M 307.5,852.5 C 307.5,853.167 307.5,853.833 307.5,854.5C 299.606,853.949 291.773,853.616 284,853.5C 281.167,853.833 278.333,854.167 275.5,854.5C 276.506,855.396 276.506,856.062 275.5,856.5C 274.264,855.754 272.93,855.421 271.5,855.5C 271.477,858.457 270.477,860.957 268.5,863C 272.002,863.656 272.002,864.989 268.5,867C 268.966,868.299 268.966,869.799 268.5,871.5C 269.5,871.5 270.5,871.5 271.5,871.5C 271.587,874.598 271.087,874.932 270,872.5C 269.5,873.5 269,874.5 268.5,875.5C 269.594,877.414 270.594,879.248 271.5,881C 270.427,882.416 270.427,883.75 271.5,885C 270.529,886.204 269.529,886.704 268.5,886.5C 269.376,887.251 270.376,887.751 271.5,888C 271.167,888.333 270.833,888.667 270.5,889C 272.101,889.273 273.601,889.773 275,890.5C 275.333,890.167 275.667,889.833 276,889.5C 276.667,890.5 276.667,891.5 276,892.5C 275.08,892.93 274.247,893.264 273.5,893.5C 275.395,895.632 277.562,895.966 280,894.5C 282.35,896.819 284.85,899.152 287.5,901.5C 288.521,900.998 288.688,900.332 288,899.5C 286.167,898.333 284.667,896.833 283.5,895C 287.626,895.453 291.626,895.786 295.5,896C 297.589,899.123 296.922,899.29 293.5,896.5C 292.738,897.628 292.071,898.795 291.5,900C 295.852,900.419 296.185,901.086 292.5,902C 295.974,902.301 299.308,903.134 302.5,904.5C 303.428,902.665 304.594,902.332 306,903.5C 306.198,901.618 306.698,899.952 307.5,898.5C 307.884,905.589 307.384,912.589 306,919.5C 303.871,918.137 303.371,918.471 304.5,920.5C 302.373,923.465 301.206,923.131 301,919.5C 298.703,919.539 296.37,919.872 294,920.5C 292.54,918.578 290.873,917.911 289,918.5C 288.833,915.667 287.333,914.167 284.5,914C 285.061,912.434 284.394,911.101 282.5,910C 281.551,909.383 280.718,909.549 280,910.5C 278.921,908.606 277.587,908.273 276,909.5C 273.645,905.439 270.145,903.105 265.5,902.5C 265.657,901.127 265.49,899.793 265,898.5C 264.282,899.451 263.449,899.617 262.5,899C 261.939,897.324 260.939,895.991 259.5,895C 260.654,894.086 260.487,893.253 259,892.5C 258.797,888.579 258.297,884.745 257.5,881C 257.958,878.602 259.292,876.936 261.5,876C 260.5,875.167 259.5,874.333 258.5,873.5C 259.47,869.226 260.47,864.559 261.5,859.5C 261.013,858.554 260.68,857.554 260.5,856.5C 261.662,854.462 263.328,853.128 265.5,852.5C 279.326,851.26 293.326,851.26 307.5,852.5 Z"/></g>
<g><path style="opacity:1" fill="#f9f9f9" d="M 191.5,795.5 C 212.833,795.5 234.167,795.5 255.5,795.5C 255.5,814.5 255.5,833.5 255.5,852.5C 258.833,852.5 262.167,852.5 265.5,852.5C 263.328,853.128 261.662,854.462 260.5,856.5C 260.68,857.554 261.013,858.554 261.5,859.5C 260.47,864.559 259.47,869.226 258.5,873.5C 259.5,874.333 260.5,875.167 261.5,876C 259.292,876.936 257.958,878.602 257.5,881C 258.297,884.745 258.797,888.579 259,892.5C 260.487,893.253 260.654,894.086 259.5,895C 260.939,895.991 261.939,897.324 262.5,899C 263.449,899.617 264.282,899.451 265,898.5C 265.49,899.793 265.657,901.127 265.5,902.5C 270.145,903.105 273.645,905.439 276,909.5C 277.587,908.273 278.921,908.606 280,910.5C 280.718,909.549 281.551,909.383 282.5,910C 284.394,911.101 285.061,912.434 284.5,914C 287.333,914.167 288.833,915.667 289,918.5C 290.873,917.911 292.54,918.578 294,920.5C 296.37,919.872 298.703,919.539 301,919.5C 301.206,923.131 302.373,923.465 304.5,920.5C 303.371,918.471 303.871,918.137 306,919.5C 307.384,912.589 307.884,905.589 307.5,898.5C 307.5,883.833 307.5,869.167 307.5,854.5C 307.5,853.833 307.5,853.167 307.5,852.5C 311.5,852.5 315.5,852.5 319.5,852.5C 319.5,871.5 319.5,890.5 319.5,909.5C 340.833,909.5 362.167,909.5 383.5,909.5C 383.5,890.5 383.5,871.5 383.5,852.5C 404.833,852.5 426.167,852.5 447.5,852.5C 447.5,871.5 447.5,890.5 447.5,909.5C 468.833,909.5 490.167,909.5 511.5,909.5C 511.5,928.5 511.5,947.5 511.5,966.5C 532.833,966.5 554.167,966.5 575.5,966.5C 575.5,985.5 575.5,1004.5 575.5,1023.5C 532.833,1023.5 490.167,1023.5 447.5,1023.5C 447.5,1004.5 447.5,985.5 447.5,966.5C 426.167,966.5 404.833,966.5 383.5,966.5C 383.826,947.924 383.493,929.424 382.5,911C 361.978,911.318 341.311,911.485 320.5,911.5C 320.703,929.849 320.369,948.182 319.5,966.5C 298.167,966.5 276.833,966.5 255.5,966.5C 255.5,963.167 255.5,959.833 255.5,956.5C 234.167,956.5 212.833,956.5 191.5,956.5C 191.5,959.833 191.5,963.167 191.5,966.5C 170.167,966.5 148.833,966.5 127.5,966.5C 127.5,985.5 127.5,1004.5 127.5,1023.5C 106.167,1023.5 84.8333,1023.5 63.5,1023.5C 63.5,1004.5 63.5,985.5 63.5,966.5C 42.1667,966.5 20.8333,966.5 -0.5,966.5C -0.5,928.5 -0.5,890.5 -0.5,852.5C 20.8333,852.5 42.1667,852.5 63.5,852.5C 63.5,871.5 63.5,890.5 63.5,909.5C 84.8333,909.5 106.167,909.5 127.5,909.5C 127.5,890.5 127.5,871.5 127.5,852.5C 148.833,852.5 170.167,852.5 191.5,852.5C 191.5,833.5 191.5,814.5 191.5,795.5 Z"/></g>
<g><path style="opacity:1" fill="#ededed" d="M 191.5,852.5 C 210.833,852.5 230.167,852.5 249.5,852.5C 249.741,871.58 249.408,890.413 248.5,909C 229.503,909.5 210.503,909.667 191.5,909.5C 191.5,890.5 191.5,871.5 191.5,852.5 Z"/></g>
<g><path style="opacity:1" fill="#f9f9f9" d="M 511.5,852.5 C 532.833,852.5 554.167,852.5 575.5,852.5C 575.5,871.5 575.5,890.5 575.5,909.5C 554.167,909.5 532.833,909.5 511.5,909.5C 511.5,890.5 511.5,871.5 511.5,852.5 Z"/></g>
<g><path style="opacity:1" fill="#f9faf9" d="M 639.5,852.5 C 660.833,852.5 682.167,852.5 703.5,852.5C 703.5,871.5 703.5,890.5 703.5,909.5C 682.167,909.5 660.833,909.5 639.5,909.5C 639.5,890.5 639.5,871.5 639.5,852.5 Z"/></g>
<g><path style="opacity:1" fill="#fafaf9" d="M 767.5,852.5 C 788.833,852.5 810.167,852.5 831.5,852.5C 831.5,871.5 831.5,890.5 831.5,909.5C 810.167,909.5 788.833,909.5 767.5,909.5C 767.5,890.5 767.5,871.5 767.5,852.5 Z"/></g>
<g><path style="opacity:1" fill="#f9faf9" d="M 895.5,852.5 C 916.833,852.5 938.167,852.5 959.5,852.5C 959.5,871.5 959.5,890.5 959.5,909.5C 938.167,909.5 916.833,909.5 895.5,909.5C 895.5,890.5 895.5,871.5 895.5,852.5 Z"/></g>
<g><path style="opacity:1" fill="#ededed" d="M 63.5,852.5 C 84.8333,852.5 106.167,852.5 127.5,852.5C 127.5,871.5 127.5,890.5 127.5,909.5C 106.167,909.5 84.8333,909.5 63.5,909.5C 63.5,890.5 63.5,871.5 63.5,852.5 Z"/></g>
<g><path style="opacity:1" fill="#ededed" d="M 307.5,854.5 C 307.5,869.167 307.5,883.833 307.5,898.5C 306.698,899.952 306.198,901.618 306,903.5C 304.594,902.332 303.428,902.665 302.5,904.5C 299.308,903.134 295.974,902.301 292.5,902C 296.185,901.086 295.852,900.419 291.5,900C 292.071,898.795 292.738,897.628 293.5,896.5C 296.922,899.29 297.589,899.123 295.5,896C 291.626,895.786 287.626,895.453 283.5,895C 284.667,896.833 286.167,898.333 288,899.5C 288.688,900.332 288.521,900.998 287.5,901.5C 284.85,899.152 282.35,896.819 280,894.5C 277.562,895.966 275.395,895.632 273.5,893.5C 274.247,893.264 275.08,892.93 276,892.5C 276.667,891.5 276.667,890.5 276,889.5C 275.667,889.833 275.333,890.167 275,890.5C 273.601,889.773 272.101,889.273 270.5,889C 270.833,888.667 271.167,888.333 271.5,888C 270.376,887.751 269.376,887.251 268.5,886.5C 269.529,886.704 270.529,886.204 271.5,885C 270.427,883.75 270.427,882.416 271.5,881C 270.594,879.248 269.594,877.414 268.5,875.5C 269,874.5 269.5,873.5 270,872.5C 271.087,874.932 271.587,874.598 271.5,871.5C 270.5,871.5 269.5,871.5 268.5,871.5C 268.966,869.799 268.966,868.299 268.5,867C 272.002,864.989 272.002,863.656 268.5,863C 270.477,860.957 271.477,858.457 271.5,855.5C 272.93,855.421 274.264,855.754 275.5,856.5C 276.506,856.062 276.506,855.396 275.5,854.5C 278.333,854.167 281.167,853.833 284,853.5C 291.773,853.616 299.606,853.949 307.5,854.5 Z"/></g>
<g><path style="opacity:1" fill="#ededed" d="M 319.5,852.5 C 340.833,852.5 362.167,852.5 383.5,852.5C 383.5,871.5 383.5,890.5 383.5,909.5C 362.167,909.5 340.833,909.5 319.5,909.5C 319.5,890.5 319.5,871.5 319.5,852.5 Z"/></g>
<g><path style="opacity:1" fill="#ededed" d="M 447.5,852.5 C 468.833,852.5 490.167,852.5 511.5,852.5C 511.5,871.5 511.5,890.5 511.5,909.5C 490.167,909.5 468.833,909.5 447.5,909.5C 447.5,890.5 447.5,871.5 447.5,852.5 Z"/></g>
<g><path style="opacity:1" fill="#ededed" d="M 575.5,852.5 C 596.833,852.5 618.167,852.5 639.5,852.5C 639.5,871.5 639.5,890.5 639.5,909.5C 618.167,909.5 596.833,909.5 575.5,909.5C 575.5,890.5 575.5,871.5 575.5,852.5 Z"/></g>
<g><path style="opacity:1" fill="#ededed" d="M 703.5,852.5 C 724.833,852.5 746.167,852.5 767.5,852.5C 767.5,871.5 767.5,890.5 767.5,909.5C 746.167,909.5 724.833,909.5 703.5,909.5C 703.5,890.5 703.5,871.5 703.5,852.5 Z"/></g>
<g><path style="opacity:1" fill="#ededed" d="M 831.5,852.5 C 852.833,852.5 874.167,852.5 895.5,852.5C 895.5,871.5 895.5,890.5 895.5,909.5C 874.167,909.5 852.833,909.5 831.5,909.5C 831.5,890.5 831.5,871.5 831.5,852.5 Z"/></g>
<g><path style="opacity:1" fill="#ededed" d="M 959.5,852.5 C 980.833,852.5 1002.17,852.5 1023.5,852.5C 1023.5,871.5 1023.5,890.5 1023.5,909.5C 1002.17,909.5 980.833,909.5 959.5,909.5C 959.5,890.5 959.5,871.5 959.5,852.5 Z"/></g>
<g><path style="opacity:1" fill="#f9faf9" d="M 575.5,909.5 C 596.833,909.5 618.167,909.5 639.5,909.5C 639.5,928.5 639.5,947.5 639.5,966.5C 618.167,966.5 596.833,966.5 575.5,966.5C 575.5,947.5 575.5,928.5 575.5,909.5 Z"/></g>
<g><path style="opacity:1" fill="#f9faf9" d="M 703.5,909.5 C 724.833,909.5 746.167,909.5 767.5,909.5C 767.5,928.5 767.5,947.5 767.5,966.5C 746.167,966.5 724.833,966.5 703.5,966.5C 703.5,947.5 703.5,928.5 703.5,909.5 Z"/></g>
<g><path style="opacity:1" fill="#f9faf9" d="M 831.5,909.5 C 852.833,909.5 874.167,909.5 895.5,909.5C 895.5,928.5 895.5,947.5 895.5,966.5C 874.167,966.5 852.833,966.5 831.5,966.5C 831.5,947.5 831.5,928.5 831.5,909.5 Z"/></g>
<g><path style="opacity:1" fill="#f9faf9" d="M 959.5,909.5 C 980.833,909.5 1002.17,909.5 1023.5,909.5C 1023.5,928.5 1023.5,947.5 1023.5,966.5C 1002.41,966.647 981.412,966.813 960.5,967C 959.628,985.409 959.295,1004.24 959.5,1023.5C 938.167,1023.5 916.833,1023.5 895.5,1023.5C 895.5,1004.5 895.5,985.5 895.5,966.5C 916.833,966.5 938.167,966.5 959.5,966.5C 959.5,947.5 959.5,928.5 959.5,909.5 Z"/></g>
<g><path style="opacity:1" fill="#ededed" d="M 511.5,909.5 C 532.833,909.5 554.167,909.5 575.5,909.5C 575.5,928.5 575.5,947.5 575.5,966.5C 554.167,966.5 532.833,966.5 511.5,966.5C 511.5,947.5 511.5,928.5 511.5,909.5 Z"/></g>
<g><path style="opacity:1" fill="#ededed" d="M 639.5,909.5 C 660.833,909.5 682.167,909.5 703.5,909.5C 703.5,928.5 703.5,947.5 703.5,966.5C 682.167,966.5 660.833,966.5 639.5,966.5C 639.5,947.5 639.5,928.5 639.5,909.5 Z"/></g>
<g><path style="opacity:1" fill="#ededed" d="M 767.5,909.5 C 788.833,909.5 810.167,909.5 831.5,909.5C 831.5,928.5 831.5,947.5 831.5,966.5C 810.167,966.5 788.833,966.5 767.5,966.5C 767.5,947.5 767.5,928.5 767.5,909.5 Z"/></g>
<g><path style="opacity:1" fill="#ededed" d="M 895.5,909.5 C 916.833,909.5 938.167,909.5 959.5,909.5C 959.5,928.5 959.5,947.5 959.5,966.5C 938.167,966.5 916.833,966.5 895.5,966.5C 895.5,947.5 895.5,928.5 895.5,909.5 Z"/></g>
<g><path style="opacity:1" fill="#ececec" d="M 383.5,966.5 C 362.167,966.5 340.833,966.5 319.5,966.5C 320.369,948.182 320.703,929.849 320.5,911.5C 341.311,911.485 361.978,911.318 382.5,911C 383.493,929.424 383.826,947.924 383.5,966.5 Z"/></g>
<g><path style="opacity:1" fill="#ededed" d="M 255.5,966.5 C 234.167,966.5 212.833,966.5 191.5,966.5C 191.5,963.167 191.5,959.833 191.5,956.5C 212.833,956.5 234.167,956.5 255.5,956.5C 255.5,959.833 255.5,963.167 255.5,966.5 Z"/></g>
<g><path style="opacity:1" fill="#ededed" d="M -0.5,966.5 C 20.8333,966.5 42.1667,966.5 63.5,966.5C 63.5,985.5 63.5,1004.5 63.5,1023.5C 42.1667,1023.5 20.8333,1023.5 -0.5,1023.5C -0.5,1004.5 -0.5,985.5 -0.5,966.5 Z"/></g>
<g><path style="opacity:1" fill="#ededed" d="M 191.5,966.5 C 191.5,985.5 191.5,1004.5 191.5,1023.5C 170.167,1023.5 148.833,1023.5 127.5,1023.5C 127.5,1004.5 127.5,985.5 127.5,966.5C 148.833,966.5 170.167,966.5 191.5,966.5 Z"/></g>
<g><path style="opacity:1" fill="#f9faf9" d="M 191.5,966.5 C 212.833,966.5 234.167,966.5 255.5,966.5C 255.5,985.5 255.5,1004.5 255.5,1023.5C 234.167,1023.5 212.833,1023.5 191.5,1023.5C 191.5,1004.5 191.5,985.5 191.5,966.5 Z"/></g>
<g><path style="opacity:1" fill="#f9faf9" d="M 319.5,966.5 C 340.833,966.5 362.167,966.5 383.5,966.5C 383.5,985.5 383.5,1004.5 383.5,1023.5C 362.167,1023.5 340.833,1023.5 319.5,1023.5C 319.5,1004.5 319.5,985.5 319.5,966.5 Z"/></g>
<g><path style="opacity:1" fill="#ededed" d="M 575.5,966.5 C 596.833,966.5 618.167,966.5 639.5,966.5C 639.5,985.5 639.5,1004.5 639.5,1023.5C 618.167,1023.5 596.833,1023.5 575.5,1023.5C 575.5,1004.5 575.5,985.5 575.5,966.5 Z"/></g>
<g><path style="opacity:1" fill="#f9faf9" d="M 639.5,966.5 C 660.833,966.5 682.167,966.5 703.5,966.5C 703.5,985.5 703.5,1004.5 703.5,1023.5C 682.167,1023.5 660.833,1023.5 639.5,1023.5C 639.5,1004.5 639.5,985.5 639.5,966.5 Z"/></g>
<g><path style="opacity:1" fill="#ededed" d="M 703.5,966.5 C 724.833,966.5 746.167,966.5 767.5,966.5C 767.5,985.5 767.5,1004.5 767.5,1023.5C 746.167,1023.5 724.833,1023.5 703.5,1023.5C 703.5,1004.5 703.5,985.5 703.5,966.5 Z"/></g>
<g><path style="opacity:1" fill="#f9faf9" d="M 767.5,966.5 C 788.833,966.5 810.167,966.5 831.5,966.5C 831.5,985.5 831.5,1004.5 831.5,1023.5C 810.167,1023.5 788.833,1023.5 767.5,1023.5C 767.5,1004.5 767.5,985.5 767.5,966.5 Z"/></g>
<g><path style="opacity:1" fill="#ededed" d="M 831.5,966.5 C 852.833,966.5 874.167,966.5 895.5,966.5C 895.5,985.5 895.5,1004.5 895.5,1023.5C 874.167,1023.5 852.833,1023.5 831.5,1023.5C 831.5,1004.5 831.5,985.5 831.5,966.5 Z"/></g>
<g><path style="opacity:1" fill="#ededed" d="M 255.5,966.5 C 276.833,966.5 298.167,966.5 319.5,966.5C 319.5,985.5 319.5,1004.5 319.5,1023.5C 298.167,1023.5 276.833,1023.5 255.5,1023.5C 255.5,1004.5 255.5,985.5 255.5,966.5 Z"/></g>
<g><path style="opacity:1" fill="#ededed" d="M 383.5,966.5 C 404.833,966.5 426.167,966.5 447.5,966.5C 447.5,985.5 447.5,1004.5 447.5,1023.5C 426.167,1023.5 404.833,1023.5 383.5,1023.5C 383.5,1004.5 383.5,985.5 383.5,966.5 Z"/></g>
<g><path style="opacity:1" fill="#ededed" d="M 1023.5,966.5 C 1023.5,985.5 1023.5,1004.5 1023.5,1023.5C 1002.17,1023.5 980.833,1023.5 959.5,1023.5C 959.295,1004.24 959.628,985.409 960.5,967C 981.412,966.813 1002.41,966.647 1023.5,966.5 Z"/></g>
</svg>
